<?xml version="1.0" encoding="UTF-8" standalone="no"?>
<!-- Created with Inkscape (http://www.inkscape.org/) -->

<svg
   xmlns:dc="http://purl.org/dc/elements/1.1/"
   xmlns:cc="http://creativecommons.org/ns#"
   xmlns:rdf="http://www.w3.org/1999/02/22-rdf-syntax-ns#"
   xmlns:svg="http://www.w3.org/2000/svg"
   xmlns="http://www.w3.org/2000/svg"
   xmlns:sodipodi="http://sodipodi.sourceforge.net/DTD/sodipodi-0.dtd"
   xmlns:inkscape="http://www.inkscape.org/namespaces/inkscape"
   version="1.1"
   id="svg2"
   xml:space="preserve"
   width="306.92001"
   height="144"
   viewBox="0 0 306.92001 144"
   sodipodi:docname="MBNA_Logo_WHITE.EPS"
   inkscape:version="0.92.5 (0.92.5+68)"><metadata
     id="metadata8"><rdf:RDF><cc:Work
         rdf:about=""><dc:format>image/svg+xml</dc:format><dc:type
           rdf:resource="http://purl.org/dc/dcmitype/StillImage" /><dc:title></dc:title></cc:Work></rdf:RDF></metadata><defs
     id="defs6" /><sodipodi:namedview
     pagecolor="#ffffff"
     bordercolor="#666666"
     borderopacity="1"
     objecttolerance="10"
     gridtolerance="10"
     guidetolerance="10"
     inkscape:pageopacity="0"
     inkscape:pageshadow="2"
     inkscape:window-width="1535"
     inkscape:window-height="876"
     id="namedview4"
     showgrid="false"
     inkscape:pagecheckerboard="false"
     inkscape:zoom="1.7175635"
     inkscape:cx="69.031962"
     inkscape:cy="30.219454"
     inkscape:window-x="65"
     inkscape:window-y="24"
     inkscape:window-maximized="1"
     inkscape:current-layer="g10" /><g
     id="g10"
     inkscape:groupmode="layer"
     inkscape:label="ink_ext_XXXXXX"
     transform="matrix(1.3333333,0,0,-1.3333333,0,144)"><g
       id="g12"
       transform="scale(0.1)"><path
         d="m 378.645,671.902 v -60.511 h 1.511 c 20.192,46.593 58.242,68.265 109.375,68.265 51.996,0 84.59,-21.672 107.809,-68.265 20.262,46.593 65.996,68.265 114.855,68.265 34.891,0 72.942,-12.375 96.211,-40.343 26.379,-31.055 20.996,-76.051 20.996,-115.622 V 277.789 H 715.355 v 208.715 c 0,15.512 1.516,54.242 -2.324,69 -6.215,24.863 -24.863,31.859 -48.937,31.859 -20.141,0 -41.11,-11.644 -49.653,-30.293 -8.539,-18.593 -7.781,-49.672 -7.781,-70.566 V 277.789 H 492.668 v 208.715 c 0,41.133 7.781,101.594 -51.242,101.594 -59.703,0 -57.379,-58.95 -57.379,-101.594 V 277.789 H 270 v 394.113 h 108.645"
         style="fill:#ffffff;fill-opacity:1;fill-rule:nonzero;stroke:none"
         id="path14"
         inkscape:connector-curvature="0" /><path
         d="m 988.398,443.07 c 0,-21.754 0.836,-46.562 13.212,-65.992 10.82,-17.078 27.16,-27.105 48.11,-27.105 64.4,0 64.4,82.156 64.4,124.832 0,44.293 0,126.504 -62.86,126.504 -55.104,0 -62.862,-59.75 -62.862,-101.641 z M 872.809,810.004 H 986.832 V 622.258 h 3.133 c 19.385,38.754 51.975,57.398 96.215,57.398 112.48,0 146.63,-111.695 146.63,-204.851 0,-103.184 -41.13,-204.801 -159.85,-204.801 -56.62,0 -83.726,20.941 -112.48,68.266 -13.917,-17.032 -18.621,-39.563 -25.621,-60.481 h -62.05 v 532.215"
         style="fill:#ffffff;fill-opacity:1;fill-rule:nonzero;stroke:none"
         id="path16"
         inkscape:connector-curvature="0" /><path
         d="m 1275.46,671.902 h 107.86 v -66.726 h 1.57 c 23.27,50.429 55.86,74.48 113.24,74.48 37.24,0 73.7,-11.593 96.99,-43.429 21.73,-29.485 21.73,-79.157 21.73,-114.883 V 277.789 h -114.08 v 211.797 c 0,40.32 5.49,99.293 -51.96,99.293 -20.17,0 -38.81,-11.594 -48.11,-29.508 -11.6,-22.461 -13.16,-44.976 -13.16,-69.785 V 277.789 h -114.08 v 394.113"
         style="fill:#ffffff;fill-opacity:1;fill-rule:nonzero;stroke:none"
         id="path18"
         inkscape:connector-curvature="0" /><path
         d="m 1907.79,466.289 c -43.44,-4.648 -123.36,-14.726 -123.36,-72.184 0,-30.968 18.57,-51.972 50.41,-51.972 23.27,0 44.22,12.433 57.43,32.594 16.3,24.863 15.52,48.105 15.52,76.05 z m 10.86,-188.5 c -4.65,20.16 -6.21,41.102 -5.43,61.266 -32.6,-46.567 -66.7,-69.051 -125.68,-69.051 -69.83,0 -124.1,37.242 -124.1,111.773 0,58.164 36.4,97.731 88.43,117.161 44.97,17.023 107.81,20.16 155.92,24.753 v 9.301 c 0,17.106 1.56,37.289 -10.03,52.024 -10.14,13.211 -29.51,18.617 -46.62,18.617 -36.44,0 -68.3,-18.617 -68.3,-57.426 l -107.81,10.078 c 11.65,95.485 104.71,123.371 187.73,123.371 40.35,0 93.13,-9.32 124.91,-35.726 40.43,-32.539 36.49,-75.969 36.49,-123.321 V 336.758 c 0,-20.137 1.57,-39.617 7.78,-58.969 h -113.29"
         style="fill:#ffffff;fill-opacity:1;fill-rule:nonzero;stroke:none"
         id="path20"
         inkscape:connector-curvature="0" /></g></g></svg>