<?xml version="1.0" encoding="UTF-8" standalone="no"?>
<svg
   fill="#000000"
   viewBox="0 0 512 512"
   width="512"
   height="512"
   version="1.1"
   id="svg4"
   xmlns="http://www.w3.org/2000/svg"
   xmlns:svg="http://www.w3.org/2000/svg">
  <defs
     id="defs8" />
  <path
     d="M 241.19141,0 4.2540925,148.08583 H 166.91712 c -0.61006,2.23605 -1.59387,4.26834 -2.08246,6.59444 -1.36238,7.16736 -2.42953,15.05015 -2.42953,23.25409 0,105.7629 108.1142,93.82626 108.1142,93.82626 v 26.95628 c 0,10.9287 14.33518,7.14466 16.02336,29.32792 -7.16732,0 -149.76335,-4.10568 -149.76335,92.09088 0,96.55196 125.87295,91.80162 125.87295,91.80162 0,0 145.36706,6.50098 145.36706,-112.91544 0.0592,-71.34776 -83.2404,-94.57222 -83.2404,-123.21202 0,-28.99522 62.76292,-37.51294 62.76292,-105.39547 0,-29.6764 -2.03108,-50.81287 -15.3292,-65.82877 -1.0366,-1.03661 -1.71178,-1.74834 -2.71876,-2.42954 -0.22884,-0.21321 -0.5198,-0.36848 -0.75198,-0.57846 h 3.64428 l 61.31678,-45.98759 v 62.87863 a 14.810064,14.810064 0 0 0 0.34708,3.41292 29.620128,29.620128 0 0 0 -15.15566,26.20425 v 29.61716 a 29.620128,29.620128 0 1 0 59.23432,0 v -29.61716 a 29.620128,29.620128 0 0 0 -15.15566,-26.20425 14.810064,14.810064 0 0 0 0.34708,-3.41292 V 33.319312 L 507.74591,0 Z m 20.4775,90.413341 c 8.52422,-0.38595 17.10438,1.684938 25.27872,6.305216 6.13074,3.080186 11.88298,7.478333 17.00674,12.957513 10.57332,10.57332 19.4691,25.92473 24.23746,44.02082 11.25452,42.97451 -3.36664,84.30017 -33.72424,92.14871 -30.0318,8.50014 -63.50382,-19.53574 -75.08412,-62.18446 -5.12378,-20.79125 -4.41666,-40.89761 1.3883,-56.92049 0.0548,-0.20666 0.1746,-0.3732 0.23136,-0.57847 0.0996,-0.0489 0.2506,-0.1845 0.3471,-0.23138 1.664,-6.33492 4.38396,-12.01824 7.69352,-16.7175 6.08764,-8.89355 14.11652,-14.917125 24.1218,-17.585193 2.81362,-0.681196 5.66196,-1.086118 8.50336,-1.214766 z m 11.5692,255.679439 c 50.14186,-3.76138 92.82854,23.8497 95.9087,61.37462 2.07322,37.19918 -36.50316,70.28988 -87.00042,73.69586 -50.14184,3.40596 -93.45186,-23.8284 -95.85085,-61.02756 -2.39899,-37.52496 36.44529,-70.28154 86.94257,-74.04292 z"
     id="path2"
     style="fill:#ffffff;fill-opacity:1;stroke-width:29.6172" />
</svg>
