<?xml version="1.0" encoding="UTF-8" standalone="no"?>
<svg
   width="512"
   height="512"
   stroke="#000000"
   fill="none"
   version="1.1"
   id="svg6"
   sodipodi:docname="web.svg"
   inkscape:version="1.1 (1:1.1+202105261517+ce6663b3b7)"
   xmlns:inkscape="http://www.inkscape.org/namespaces/inkscape"
   xmlns:sodipodi="http://sodipodi.sourceforge.net/DTD/sodipodi-0.dtd"
   xmlns="http://www.w3.org/2000/svg"
   xmlns:svg="http://www.w3.org/2000/svg">
  <defs
     id="defs10" />
  <sodipodi:namedview
     id="namedview8"
     pagecolor="#ffffff"
     bordercolor="#666666"
     borderopacity="1.0"
     inkscape:pageshadow="2"
     inkscape:pageopacity="0.0"
     inkscape:pagecheckerboard="0"
     showgrid="false"
     fit-margin-top="0"
     fit-margin-left="0"
     fit-margin-right="0"
     fit-margin-bottom="0"
     inkscape:zoom="1.4647212"
     inkscape:cx="157.02647"
     inkscape:cy="297.32621"
     inkscape:window-width="1872"
     inkscape:window-height="1055"
     inkscape:window-x="48"
     inkscape:window-y="0"
     inkscape:window-maximized="1"
     inkscape:current-layer="svg6" />
  <path
     id="path2"
     style="color:#000000;fill:#ffffff;fill-opacity:1;stroke:none;stroke-width:1.23118;-inkscape-stroke:none"
     d="M 254.68747,0 C 113.74356,0.7232461 -0.36875685,115.79593 8.9555097e-4,256.76131 0.37052965,397.71972 115.09003,512 256,512 396.90998,512 511.62947,397.71972 511.99911,256.76131 512.36876,115.79593 398.25645,0.7232461 257.31254,0 h -0.0409 -2.54332 z m -9.76466,32.321271 V 156.42513 c -27.77328,-0.99591 -55.44532,-5.51904 -82.21598,-14.00419 17.60652,-41.91091 44.76587,-79.681409 79.99236,-110.001048 0.73863,-0.04315 1.48306,-0.0626 2.22362,-0.09862 z m 22.15439,0 c 0.74056,0.03601 1.48498,0.05546 2.22361,0.09862 35.22649,30.319639 62.38585,68.090139 79.99236,110.001049 -26.77065,8.48515 -54.4427,13.00828 -82.21597,14.00419 z m -62.22269,5.616594 C 177.96392,66.33702 156.66449,99.23302 141.82891,134.91371 123.38926,127.57014 105.52785,118.31726 88.450193,107.29017 118.62494,73.302693 159.00368,48.620242 204.85451,37.937865 Z m 102.29099,0 c 45.85083,10.682377 86.22957,35.364828 116.40431,69.352305 -17.07765,11.02709 -34.93907,20.27997 -53.37872,27.62354 C 355.33551,99.23302 334.03608,66.33702 307.1455,37.937865 Z M 74.538792,124.63065 c 18.974404,12.43477 38.865598,22.82505 59.438978,30.98627 -9.6349,28.62729 -15.16012,58.73638 -16.34657,89.4638 H 32.266114 c 2.161502,-44.90301 17.528379,-86.3 42.272678,-120.45007 z m 362.922418,0 c 24.7443,34.15007 40.11118,75.54706 42.27268,120.45007 h -85.36508 c -1.18644,-30.72742 -6.71166,-60.83651 -16.34657,-89.4638 20.57338,-8.16122 40.46457,-18.5515 59.43897,-30.98627 z m -282.62236,38.48148 c 29.31142,9.40434 59.63901,14.42993 90.08396,15.44744 v 66.52115 H 139.78559 c 1.16741,-28.14925 6.26415,-55.72277 15.05326,-81.96859 z m 202.32231,0 c 8.7891,26.24582 13.88584,53.81934 15.05325,81.96859 H 267.0772 v -66.52115 c 30.44495,-1.01751 60.77254,-6.0431 90.08396,-15.44744 z M 32.294962,267.24882 h 85.268928 c 0.95133,30.79437 6.28968,60.97767 15.72875,89.71155 -20.29269,8.10197 -39.914916,18.38922 -58.645672,30.65915 C 49.882725,353.52869 34.49206,312.17347 32.294962,267.24882 Z m 107.423328,0 h 105.20452 v 66.52115 c -30.68427,1.02551 -61.24352,6.14808 -90.76907,15.69279 -8.59569,-26.35021 -13.49924,-53.99869 -14.43545,-82.21394 z m 127.35891,0 h 105.20451 c -0.9362,28.21525 -5.83976,55.86373 -14.43544,82.21394 -29.52555,-9.54471 -60.08481,-14.66728 -90.76907,-15.69279 z m 127.35891,0 h 85.26893 c -2.1971,44.92465 -17.58777,86.27987 -42.35201,120.3707 -18.73075,-12.26993 -38.35298,-22.55718 -58.64567,-30.65915 9.43908,-28.73388 14.77743,-58.91718 15.72875,-89.71155 z m -149.5133,88.65559 v 123.79837 c -1.89343,-0.0917 -3.76369,-0.26831 -5.64438,-0.40651 -34.13393,-30.31592 -60.49004,-67.68031 -77.4923,-109.05572 27.05965,-8.67122 55.04166,-13.32869 83.13668,-14.33614 z m 22.15439,0 c 28.09502,1.00745 56.07703,5.66492 83.13667,14.33614 -17.00224,41.37541 -43.35836,78.7398 -77.4923,109.05572 -1.88068,0.1382 -3.75095,0.3148 -5.64437,0.40651 z m -126.16899,21.84338 c 14.259,35.01006 34.71246,67.40539 60.56401,95.54943 -44.37921,-11.05225 -83.45988,-35.29698 -112.889813,-68.35406 16.752973,-10.81431 34.256733,-19.93255 52.325803,-27.19537 z m 230.18358,0 c 18.06907,7.26282 35.57284,16.38106 52.32581,27.19537 -29.42993,33.05708 -68.5106,57.30181 -112.88982,68.35406 25.85156,-28.14404 46.30501,-60.53937 60.56401,-95.54943 z" />
</svg>
