<?xml version="1.0" encoding="UTF-8" standalone="no"?>
<svg
   xmlns:dc="http://purl.org/dc/elements/1.1/"
   xmlns:cc="http://creativecommons.org/ns#"
   xmlns:rdf="http://www.w3.org/1999/02/22-rdf-syntax-ns#"
   xmlns:svg="http://www.w3.org/2000/svg"
   xmlns="http://www.w3.org/2000/svg"
   xmlns:sodipodi="http://sodipodi.sourceforge.net/DTD/sodipodi-0.dtd"
   xmlns:inkscape="http://www.inkscape.org/namespaces/inkscape"
   height="512pt"
   viewBox="-29 0 512 512"
   width="512pt"
   version="1.1"
   id="svg48"
   sodipodi:docname="default.svg"
   inkscape:version="0.92.4 (unknown)">
  <metadata
     id="metadata54">
    <rdf:RDF>
      <cc:Work
         rdf:about="">
        <dc:format>image/svg+xml</dc:format>
        <dc:type
           rdf:resource="http://purl.org/dc/dcmitype/StillImage" />
        <dc:title />
      </cc:Work>
    </rdf:RDF>
  </metadata>
  <defs
     id="defs52" />
  <sodipodi:namedview
     pagecolor="#ffffff"
     bordercolor="#666666"
     borderopacity="1"
     objecttolerance="10"
     gridtolerance="10"
     guidetolerance="10"
     inkscape:pageopacity="0"
     inkscape:pageshadow="2"
     inkscape:window-width="1535"
     inkscape:window-height="876"
     id="namedview50"
     showgrid="false"
     inkscape:zoom="0.69140625"
     inkscape:cx="114.4731"
     inkscape:cy="404.1138"
     inkscape:window-x="65"
     inkscape:window-y="24"
     inkscape:window-maximized="1"
     inkscape:current-layer="svg48" />
  <rect
     style="fill:#6186d1;fill-opacity:0.13333334;stroke:#000000;stroke-width:3.75366378;stroke-linejoin:round;stroke-miterlimit:10;stroke-dasharray:none;stroke-opacity:0"
     id="rect896"
     width="508.49634"
     height="508.49631"
     x="-27.123167"
     y="1.6268278" />
  <path
     d="m364.070312 421.960938c37.539063-9.269532 61.96875-9.007813 83.03125 3.109374l-33.273437-63.546874c-18.917969-36.171876-33.800781-58.144532-73.144531-60.257813-8.875-.5-16.363282-1.585937-23.148438-4.019531l-179.53125 2.933594c-.609375-.910157-1.453125-1.847657-1.972656-2.757813-6.675781 2.316406-14.015625 3.375-22.71875 3.84375-39.339844 2.109375-54.195312 24.085937-73.140625 60.257813l-33.277344 63.546874c21.0625-12.117187 45.492188-12.378906 83.0625-3.109374zm0 0"
     fill="#8ebfe8"
     fill-rule="evenodd"
     id="path2"
     style="fill:#004178;fill-opacity:0.60000002" />
  <path
     d="m347.675781 169.828125c-4.238281 0-7.675781-3.433594-7.675781-7.671875v-42.90625c0-32.011719-12.289062-58.859375-35.542969-77.644531-20.972656-16.9375-49.328125-26.265625-79.847656-26.265625-56.558594 0-117.429687 33.683594-117.429687 107.636718v39.179688c0 4.234375-3.4375 7.671875-7.675782 7.671875-4.242187 0-7.675781-3.433594-7.675781-7.671875v-39.179688c0-38.066406 14.511719-70.050781 41.972656-92.496093 24.050781-19.65625 56.296875-30.480469 90.808594-30.480469 34.023437 0 65.808594 10.539062 89.5 29.675781 26.984375 21.796875 41.246094 52.769531 41.246094 89.574219v42.90625c0 4.238281-3.4375 7.671875-7.679688 7.671875zm0 0"
     fill="#37474f"
     id="path4" />
  <g
     fill-rule="evenodd"
     id="g40">
    <path
       d="m158.078125 178.835938-33.855469-30.804688h-14.015625c-3.914062 0-7.570312 1.085938-10.703125 2.960938-6.183594 3.726562-10.332031 10.535156-10.332031 18.308593v14.054688c0 11.675781 9.460937 21.269531 21.035156 21.269531h15.464844zm0 0"
       fill="#f55a8e"
       id="path6"
       style="fill:#6186d1;fill-opacity:1" />
    <path
       d="m322.957031 148.03125-28.140625 28.339844 26.691406 28.222656h15.464844c11.574219 0 21.035156-9.5625 21.035156-21.269531v-14.050781c0-7.746094-4.152343-14.554688-10.328124-18.28125-3.132813-1.90625-6.789063-2.988282-10.707032-2.988282zm0 0"
       fill="#f55a8e"
       id="path8"
       style="fill:#6186d1;fill-opacity:1" />
    <path
       d="m266.09375 168.714844h56.863281v-37.257813c-.78125-138.007812-198.734375-119.554687-198.734375-6.398437v43.683594h12.414063c9.691406-.027344 15.347656-4.222657 22.457031-14.578126 15.988281-23.265624 20.222656-14.699218 38.761719-3.375 13.492187 8.242188 29.621093 17.925782 68.238281 17.925782zm0 0"
       fill="#546e7a"
       id="path10" />
    <path
       d="m138.003906 300.179688c33.945313 52.015624 150.777344 47.378906 179.53125-2.933594-8.878906-3.171875-16.539062-8.625-24.546875-17.957032-2.785156-3.257812-10.5625-10.941406-10.96875-11.527343l-50.855469-15.816407-62.203124 18.984376c-2.582032 2.640624-6.210938 6.335937-7.949219 8.359374-8.125 9.476563-15.902344 14.964844-24.980469 18.132813.519531.90625 1.363281 1.847656 1.972656 2.757813zm0 0"
       fill="#fcc368"
       id="path12"
       style="fill:#cc8844;fill-opacity:1" />
    <path
       d="m89.957031 421.960938c-37.570312-9.269532-62-9.007813-83.0625 3.109374-25.125 47.996094 22.226563 60.378907 80.453125 60.378907h8.9375l36.46875-38.785157zm0 0"
       id="path14"
       fill="#ffdda6"
       style="fill:#dd9944;fill-opacity:1" />
    <path
       d="m364.070312 421.960938-32.117187 30.363281 25.761719 33.125h8.964844c58.199218 0 105.546874-12.382813 80.421874-60.378907-21.0625-12.117187-45.488281-12.378906-83.03125-3.109374zm0 0"
       fill="#ffdda6"
       id="path16"
       style="fill:#dd9944;fill-opacity:1" />
    <path
       d="m322.957031 148.03125h-56.863281c-38.617188 0-54.746094-9.710938-68.238281-17.925781-18.539063-11.355469-22.773438-19.921875-38.761719 3.375-7.109375 10.355469-12.765625 14.550781-22.457031 14.550781h-12.414063v42.949219c0 4.429687.492188 9.007812 1.449219 13.644531 4.816406 23.527344 21.324219 48.730469 43.289063 66.304688 8.179687 6.570312 17.144531 12.054687 26.574218 16.015624 1.074219.441407 2.175782.882813 3.277344 1.292969 18.046875 6.777344 31.625 6.746094 49.671875-.027343 12.039063-4.550782 23.441406-11.707032 33.539063-20.449219 20.046874-17.339844 34.929687-41.015625 39.484374-63.167969.957032-4.632812 1.453126-9.183594 1.453126-13.613281v-42.949219zm0 0"
       fill="#ffdda6"
       id="path18"
       style="fill:#dd9944;fill-opacity:1" />
    <path
       d="m294.527344 190.980469c0 4.429687-.492188 8.980469-1.453125 13.613281-3.972657 19.453125-15.957031 40.046875-32.378907 56.535156-2.289062 2.289063-4.640624 4.519532-7.105468 6.632813-10.097656 8.742187-21.5 15.898437-33.539063 20.449219-3.714843 1.378906-7.253906 2.492187-10.675781 3.34375 13.199219 3.167968 24.746094 2.054687 39.105469-3.34375 12.042969-4.550782 23.445312-11.707032 33.539062-20.449219 20.050781-17.339844 34.933594-41.015625 39.488281-63.167969.957032-4.632812 1.449219-9.183594 1.449219-13.613281v-42.949219h-28.429687zm0 0"
       fill="#fcc368"
       id="path20"
       style="fill:#cc8844;fill-opacity:1" />
    <path
       d="m292.4375 278.675781c-3.132812-3.523437-10.007812-10.359375-10.417969-10.914062-10.09375 8.742187-21.496093 15.898437-33.539062 20.449219-18.042969 6.773437-31.621094 6.804687-49.667969.027343-1.101562-.410156-2.207031-.851562-3.277344-1.292969-9.429687-3.960937-18.394531-9.445312-26.578125-16.015624-2.582031 2.636718-6.207031 6.335937-7.949219 8.359374-.925781 1.054688-1.828124 2.082032-2.726562 3.050782 3.367188 3.375 6.933594 6.570312 10.679688 9.5625 8.179687 6.574218 17.144531 12.058594 26.574218 15.992187 1.074219.46875 2.175782.90625 3.277344 1.320313 18.046875 6.773437 31.625 6.746094 49.671875-.0625 17.84375-6.453125 19.117187-12.671875 31.621094-1.261719 6.269531 5.75 9.835937 8.128906 14.914062 11.679687 9.632813-5.984374 17.4375-13.4375 22.515625-22.328124-8.878906-3.167969-16.539062-8.625-24.546875-17.953126-.171875-.207031-.40625-.382812-.667969-.5zm0 0"
       fill="#e6a235"
       id="path22"
       style="fill:#bb7733;fill-opacity:1" />
    <path
       d="m195.097656 38.363281c49.527344-1.40625 99.050782 28.488281 99.425782 97.375v12.292969h28.433593v-16.578125c-.460937-82.234375-70.964843-108.902344-127.859375-93.089844zm0 0"
       fill="#37474f"
       id="path24" />
    <path
       d="m96.28125 485.449219-2.550781-25.554688h-8.066407c-38.761718 0-72.707031-5.484375-83.644531-23.324219-12.097656 38.523438 32.058594 48.878907 85.324219 48.878907zm0 0"
       fill="#fcc368"
       id="path26"
       style="fill:#cc8844;fill-opacity:1" />
    <path
       d="m360.269531 459.894531-2.554687 25.554688h8.964844c55.007812 0 100.328124-11.058594 83.90625-52.808594-8.152344 20.976563-44.128907 27.253906-85.585938 27.253906zm0 0"
       fill="#fcc368"
       id="path28"
       style="fill:#cc8844;fill-opacity:1" />
    <path
       d="m209.492188 361.613281h-112.136719c-6.730469 0-12.882813 5.605469-12.214844 12.351563l4.816406 47.996094 6.328125 63.488281 1.421875 14.230469c.664063 6.746093 5.511719 12.320312 12.210938 12.320312h234.164062c6.730469 0 11.546875-5.574219 12.210938-12.320312l1.421875-14.230469 6.355468-63.488281 4.785157-47.996094c.667969-6.75-5.480469-12.351563-12.210938-12.351563zm0 0"
       fill="#eceff1"
       id="path30" />
    <path
       d="m322.550781 326.789062c39.34375 2.140626 54.777344 18.863282 73.140625 60.257813l14.855469 28.398437c13.984375.292969 25.707031 3.375 36.554687 9.625l-33.273437-63.546874c-18.917969-36.171876-33.800781-58.148438-73.144531-60.261719-8.875-.496094-16.363282-1.582031-23.148438-4.019531-5.078125 8.890624-12.882812 16.34375-22.515625 22.328124-2.292969 1.410157 22.890625 6.984376 27.53125 7.21875zm0 0"
       fill="#519ad6"
       id="path32"
       style="fill:#002d50;fill-opacity:0.60000002" />
    <path
       d="m125.671875 204.625c-.957031-4.636719-1.449219-9.214844-1.449219-13.644531v-3.519531l-13.8125-.027344c-11.546875 0-21.03125-9.566406-21.03125-21.273438-.148437 1.027344-.203125 2.085938-.203125 3.140625v14.054688c0 11.675781 9.457031 21.269531 21.03125 21.269531zm0 0"
       fill="#ba4583"
       id="path34"
       style="fill:#2e68c8;fill-opacity:1" />
    <path
       d="m322.957031 190.980469c0 4.429687-.492187 8.980469-1.449219 13.613281h15.464844c11.574219 0 21.03125-9.5625 21.03125-21.269531v-14.050781c-1.507812 10.238281-10.269531 18.160156-20.800781 18.160156h-14.246094zm0 0"
       fill="#ba4583"
       id="path36"
       style="fill:#2e68c8;fill-opacity:1" />
    <path
       d="m227.011719 414.566406c-14.039063 0-25.382813 9.976563-25.382813 22.238282 0 12.292968 11.34375 22.238281 25.382813 22.238281 14.015625 0 25.386719-9.945313 25.386719-22.238281 0-12.261719-11.371094-22.238282-25.386719-22.238282zm0 0"
       fill="#ffd54f"
       id="path38"
       style="fill:#c2c7cc;fill-opacity:1" />
  </g>
  <path
     d="m190.023438 206.839844c-4.242188 0-7.679688-3.4375-7.679688-7.671875v-9.476563c0-4.238281 3.4375-7.671875 7.679688-7.671875 4.238281 0 7.675781 3.433594 7.675781 7.671875v9.476563c0 4.234375-3.4375 7.671875-7.675781 7.671875zm0 0"
     fill="#37474f"
     id="path42" />
  <path
     d="m256.402344 206.839844c-4.238282 0-7.675782-3.4375-7.675782-7.671875v-9.476563c0-4.238281 3.4375-7.671875 7.675782-7.671875 4.242187 0 7.679687 3.433594 7.679687 7.671875v9.476563c0 4.234375-3.4375 7.671875-7.679687 7.671875zm0 0"
     fill="#37474f"
     id="path44" />
  <path
     d="m357.019531 492.550781h-260.011719l.695313 7.128907c.667969 6.746093 5.511719 12.320312 12.214844 12.320312h234.160156c6.730469 0 11.546875-5.574219 12.214844-12.320312zm0 0"
     fill="#c2c7cc"
     fill-rule="evenodd"
     id="path46" />
</svg>
