<?xml version="1.0" encoding="UTF-8" standalone="no"?>
<svg
   xmlns:dc="http://purl.org/dc/elements/1.1/"
   xmlns:cc="http://creativecommons.org/ns#"
   xmlns:rdf="http://www.w3.org/1999/02/22-rdf-syntax-ns#"
   xmlns:svg="http://www.w3.org/2000/svg"
   xmlns="http://www.w3.org/2000/svg"
   version="1.1"
   id="svg2"
   xml:space="preserve"
   width="400"
   height="200"
   viewBox="0 0 399.99999 200"><metadata
     id="metadata8"><rdf:RDF><cc:Work
         rdf:about=""><dc:format>image/svg+xml</dc:format><dc:type
           rdf:resource="http://purl.org/dc/dcmitype/StillImage" /><dc:title></dc:title></cc:Work></rdf:RDF></metadata><defs
     id="defs6"><clipPath
       clipPathUnits="userSpaceOnUse"
       id="clipPath20"><path
         d="M 0,126 H 459 V 0 H 0 Z"
         id="path18" /></clipPath><clipPath
       clipPathUnits="userSpaceOnUse"
       id="clipPath64"><path
         d="M 61,2 H 186 V 126 H 61 Z"
         id="path62" /></clipPath><clipPath
       clipPathUnits="userSpaceOnUse"
       id="clipPath80"><path
         d="M 0,126 H 459 V 0 H 0 Z"
         id="path78" /></clipPath><clipPath
       clipPathUnits="userSpaceOnUse"
       id="clipPath736"><path
         d="M 61,2 H 186 V 126 H 61 Z"
         id="path734" /></clipPath><clipPath
       clipPathUnits="userSpaceOnUse"
       id="clipPath760"><path
         d="M 0,126 H 459 V 0 H 0 Z"
         id="path758" /></clipPath><clipPath
       clipPathUnits="userSpaceOnUse"
       id="clipPath772"><path
         d="M 61,2 H 186 V 126 H 61 Z"
         id="path770" /></clipPath><clipPath
       clipPathUnits="userSpaceOnUse"
       id="clipPath796"><path
         d="M 0,126 H 459 V 0 H 0 Z"
         id="path794" /></clipPath></defs><g
     id="g10"
     transform="matrix(1.3333333,0,0,-1.3333333,-219.19199,183.99026)"><path
   d="M 164.394,-12.007301 H 464.39401 V 137.9927 H 164.394 Z"
   style="fill:#16264e;fill-opacity:1;fill-rule:nonzero;stroke:none;stroke-width:0.88209361"
   id="path12" /><g
   id="text4370"
   style="font-style:normal;font-variant:normal;font-weight:300;font-stretch:normal;font-size:48px;font-family:GillSans-Light;-inkscape-font-specification:'GillSans-Light, Light';font-variant-ligatures:normal;font-variant-caps:normal;font-variant-numeric:normal;font-feature-settings:normal;text-align:start;writing-mode:lr-tb;text-anchor:start;fill:#e0e3ce;fill-opacity:1;fill-rule:nonzero;stroke:none"
   transform="scale(1,-1)"
   aria-label="RAW TALKPODCAST"><path
     id="path853"
     style=""
     d="m 207.792,-109.4567 v 32.735997 h 2.544 v -15.696 h 4.416 q 1.632,0 2.64,0.192 1.008,0.192 1.92,0.864 0.96,0.624 2.016,2.016 1.056,1.344 2.544,3.648 l 5.712,8.976 h 2.976 l -7.392,-11.328 q -1.392,-2.112 -2.352,-3.264 -0.96,-1.152 -2.016,-1.728 6.24,-2.304 6.24,-7.967997 0,-1.728 -0.624,-3.216 -0.576,-1.536 -1.872,-2.688 -1.248,-1.2 -3.36,-1.872 -2.112,-0.672 -4.992,-0.672 z m 2.544,2.112 h 5.328 q 4.32,0 6.48,1.728 2.16,1.728 2.16,4.656 0,3.023997 -2.16,4.751997 -2.16,1.68 -6.384,1.68 h -5.424 z" /><path
     id="path855"
     style=""
     d="m 248.17275,-109.6967 h -1.392 l -15.12,32.975997 h 2.64 l 5.184,-11.328 h 15.984 l 5.184,11.328 h 2.64 z m 6.336,19.535997 h -14.064 l 7.008,-15.407997 z" /><path
     id="path857"
     style=""
     d="m 285.86175,-104.0327 10.992,27.647997 h 0.624 l 13.152,-33.071997 h -2.592 l -10.848,27.167997 -10.944,-27.167997 h -0.768 l -10.992,27.167997 -10.848,-27.167997 h -2.592 l 13.152,33.071997 h 0.672 z" /><path
     id="path859"
     style=""
     d="m 344.46825,-109.4567 h -27.12 v 2.112 h 12.288 v 30.623997 h 2.544 V -107.3447 h 12.288 z" /><path
     id="path861"
     style=""
     d="m 356.59462,-109.6967 h -1.392 l -15.12,32.975997 h 2.64 l 5.18401,-11.328 h 15.98399 l 5.184,11.328 h 2.64 z m 6.33601,19.535997 h -14.06401 l 7.008,-15.407997 z" /><path
     id="path863"
     style=""
     d="m 378.336,-109.4567 h -2.544 v 32.735997 h 18.72 v -2.112 h -16.176 z" /><path
     id="path865"
     style=""
     d="m 419.556,-109.4567 h -3.168 l -15.696,16.319997 V -109.4567 h -2.544 v 32.735997 h 2.544 v -16.416 l 17.136,16.416 h 3.216 l -17.088,-16.416 z" /><path
     id="path867"
     style=""
     d="m 207.744,-49.456703 v 32.736 h 2.544 v -15.312 h 6.24 q 3.072,0 5.184,-0.72 2.16,-0.768 3.408,-2.016 1.248,-1.248 1.776,-2.784 0.576,-1.584 0.576,-3.264 0,-3.84 -2.64,-6.24 -2.592,-2.4 -8.064,-2.4 z m 2.544,2.112 h 6.384 q 4.08,0 6.048,1.872 2.016,1.824 2.016,4.704 0,2.976 -2.016,4.8 -2.016,1.824 -6.336,1.824 h -6.096 z" /><path
     id="path869"
     style=""
     d="m 265.57275,-33.088703 q 0,-3.456 -1.344,-6.528 -1.296,-3.072 -3.696,-5.376 -2.352,-2.352 -5.568,-3.6 -3.168,-1.296 -6.768,-1.296 -3.6,0 -6.768,1.296 -3.12,1.248 -5.52,3.552 -2.352,2.304 -3.696,5.376 -1.296,3.072 -1.296,6.576 0,3.456 1.296,6.528 1.344,3.072 3.696,5.424 2.4,2.304 5.52,3.6 3.168,1.248 6.768,1.248 3.6,0 6.768,-1.248 3.168,-1.296 5.568,-3.6 2.4,-2.352 3.696,-5.424 1.344,-3.072 1.344,-6.528 z m -2.736,0 q 0,3.024 -1.104,5.664 -1.104,2.64 -3.12,4.608 -1.968,1.968 -4.656,3.072 -2.64,1.104 -5.664,1.104 -3.024,0 -5.712,-1.104 -2.688,-1.104 -4.704,-3.072 -2.016,-1.968 -3.12,-4.608 -1.104,-2.688 -1.104,-5.664 0,-3.024 1.104,-5.664 1.104,-2.64 3.12,-4.608 2.016,-1.968 4.704,-3.072 2.688,-1.104 5.712,-1.104 3.024,0 5.664,1.104 2.688,1.104 4.656,3.072 2.016,1.968 3.12,4.608 1.104,2.64 1.104,5.664 z" /><path
     id="path871"
     style=""
     d="m 271.7295,-49.456703 v 32.736 h 11.904 q 4.656,0 8.016,-1.392 3.408,-1.44 5.472,-3.792 2.064,-2.4 2.976,-5.28 0.96,-2.88 0.96,-5.904 0,-2.928 -0.912,-5.76 -0.864,-2.88 -2.928,-5.28 -2.064,-2.4 -5.568,-3.84 -3.504,-1.488 -8.448,-1.488 z m 2.544,2.112 h 9.072 q 3.312,0 6.048,1.056 2.784,1.008 4.752,2.928 2.016,1.92 3.072,4.56 1.104,2.592 1.104,5.712 0,3.36 -1.2,6.048 -1.152,2.64 -3.216,4.512 -2.064,1.824 -4.752,2.784 -2.688,0.912 -5.664,0.912 h -9.216 z" /><path
     id="path873"
     style=""
     d="m 334.52475,-47.152703 q -5.952,-2.736 -11.52,-2.736 -3.36,0 -6.48,1.248 -3.072,1.2 -5.52,3.456 -2.4,2.256 -3.792,5.376 -1.392,3.12 -1.392,6.768 0,3.552 1.296,6.624 1.296,3.072 3.648,5.376 2.4,2.256 5.568,3.504 3.216,1.248 6.912,1.248 5.856,0 11.616,-3.072 v -2.64 q -3.36,1.776 -6.144,2.592 -2.736,0.768 -5.52,0.768 -3.168,0 -5.856,-1.056 -2.688,-1.056 -4.656,-2.976 -1.968,-1.92 -3.072,-4.56 -1.056,-2.688 -1.056,-5.808 0,-3.072 1.056,-5.712 1.056,-2.64 3.024,-4.608 1.968,-2.016 4.56,-3.072 2.64,-1.104 5.664,-1.104 2.928,0 5.76,0.768 2.832,0.768 5.904,2.4 z" /><path
     id="path875"
     style=""
     d="m 354.90712,-49.696703 h -1.392 l -15.12,32.976 h 2.64 l 5.18401,-11.328 h 15.98399 l 5.184,11.328 h 2.64 z m 6.33601,19.536 h -14.06401 l 7.008,-15.408 z" /><path
     id="path877"
     style=""
     d="m 389.5125,-47.824703 q -3.792,-2.064 -7.584,-2.064 -1.92,0 -3.648,0.672 -1.68,0.672 -3.024,1.872 -1.296,1.2 -2.016,2.784 -0.72,1.584 -0.72,3.36 0,2.016 0.672,3.456 0.672,1.392 1.824,2.352 1.152,0.96 2.4,1.536 1.248,0.576 3.36,1.392 1.776,0.672 2.976,1.248 1.2,0.528 2.16,1.344 1.008,0.768 1.584,1.968 0.624,1.152 0.624,2.736 0,2.784 -2.016,4.656 -1.968,1.872 -4.896,1.872 -1.92,0 -3.744,-0.768 -1.776,-0.768 -4.512,-2.736 v 2.976 q 4.32,2.88 8.4,2.88 1.968,0 3.696,-0.672 1.728,-0.672 3.024,-1.92 1.344,-1.248 2.064,-2.88 0.72,-1.68 0.72,-3.504 0,-2.16 -0.72,-3.696 -0.72,-1.584 -1.92,-2.592 -1.2,-1.008 -2.544,-1.632 -1.296,-0.624 -3.408,-1.44 -1.776,-0.624 -2.88,-1.104 -1.104,-0.528 -2.064,-1.248 -0.96,-0.768 -1.536,-1.824 -0.528,-1.056 -0.528,-2.496 0,-2.688 1.968,-4.464 2.016,-1.776 4.944,-1.776 1.68,0 3.264,0.528 1.584,0.528 4.08,1.968 z" /><path
     id="path879"
     style=""
     d="m 420.1245,-49.456703 h -27.12 v 2.112 h 12.288 v 30.624 h 2.544 v -30.624 h 12.288 z" /></g>

</g></svg>