<?xml version="1.0" encoding="UTF-8" standalone="no"?>
<!-- Created with Inkscape (http://www.inkscape.org/) -->

<svg
   xmlns:dc="http://purl.org/dc/elements/1.1/"
   xmlns:cc="http://creativecommons.org/ns#"
   xmlns:rdf="http://www.w3.org/1999/02/22-rdf-syntax-ns#"
   xmlns:svg="http://www.w3.org/2000/svg"
   xmlns="http://www.w3.org/2000/svg"
   xmlns:sodipodi="http://sodipodi.sourceforge.net/DTD/sodipodi-0.dtd"
   xmlns:inkscape="http://www.inkscape.org/namespaces/inkscape"
   version="1.1"
   id="svg2"
   xml:space="preserve"
   width="3939.0759"
   height="562.15637"
   viewBox="0 0 3939.0759 562.15637"
   sodipodi:docname="banner-dark-404.svg"
   inkscape:version="0.92.5 (0.92.5+68)"><metadata
     id="metadata8"><rdf:RDF><cc:Work
         rdf:about=""><dc:format>image/svg+xml</dc:format><dc:type
           rdf:resource="http://purl.org/dc/dcmitype/StillImage" /><dc:title></dc:title></cc:Work></rdf:RDF></metadata><defs
     id="defs6" /><sodipodi:namedview
     pagecolor="#ffffff"
     bordercolor="#666666"
     borderopacity="1"
     objecttolerance="10"
     gridtolerance="10"
     guidetolerance="10"
     inkscape:pageopacity="0"
     inkscape:pageshadow="2"
     inkscape:window-width="1861"
     inkscape:window-height="1056"
     id="namedview4"
     showgrid="false"
     fit-margin-top="0"
     fit-margin-left="0"
     fit-margin-right="0"
     fit-margin-bottom="0"
     inkscape:zoom="0.8295144"
     inkscape:cx="1767.2559"
     inkscape:cy="274.79999"
     inkscape:window-x="59"
     inkscape:window-y="24"
     inkscape:window-maximized="1"
     inkscape:current-layer="g12"
     showguides="true"
     inkscape:guide-bbox="true" /><g
     id="g10"
     inkscape:groupmode="layer"
     inkscape:label="ink_ext_XXXXXX"
     transform="matrix(1.3333333,0,0,-1.3333333,1063.5104,1259.2683)"><g
       id="g12"
       transform="scale(0.1)"><g
   id="g10486"
   transform="matrix(-1,0,0,1,27801.694,0)"><g
     transform="matrix(1.1934344,0,0,0.44117873,-17.12698,3759.6616)"
     id="g14"><path
       inkscape:connector-curvature="0"
       id="path16"
       style="fill:#16264e;fill-opacity:1;fill-rule:nonzero;stroke:none;stroke-width:0.93513352"
       d="M 5238.7284,3328.9864 V 12885.596 H 29993.395 V 3328.9864"
       sodipodi:nodetypes="cccc" /></g><g
     transform="scale(1.16759)"
     id="g18" /><g
     transform="scale(1.16763)"
     id="g22" /><g
     transform="scale(1.13691)"
     id="g26" /><g
     transform="scale(1.12709)"
     id="g30" /><g
     transform="scale(1.12597)"
     id="g34" /><g
     transform="scale(1.12448)"
     id="g38" /><g
     transform="scale(1.1256)"
     id="g42" /><g
     transform="scale(1.11445)"
     id="g46" /><g
     transform="scale(1.16265)"
     id="g50" /><g
     transform="scale(1.13153)"
     id="g54" /><g
     transform="scale(1.57055)"
     id="g58"><path
       style="fill:#ffffff;fill-opacity:1;fill-rule:nonzero;stroke:none;stroke-width:0.20940666"
       d="m 1517.2969,424.10156 c 0,0 -0.6892,11.45864 -8.543,14.81055 -7.8538,3.35191 -19.4817,2.15336 -53.166,4.0332 -67.3691,3.75971 -133.7945,7.34925 -201.166,10.98438 C 1119.6789,461.19995 984.90584,467.24454 850,468.15625 566.53919,470.07192 231.72836,456.44915 0,442.02344 v 12.13281 c 721.27695,29.40729 566.51908,29.85769 850,28 135.03233,-0.88489 269.9089,-7.48122 404.7578,-15.21875 67.4244,-3.86877 134.8403,-8.02242 202.2676,-11.89062 33.7136,-1.93411 45.9374,-2.74073 53.6289,-1.9668 4.8159,0.48459 9.3691,7.67969 9.3691,7.67969 l 3.2852,-1.36329 c 0,0 -4.0557,-8.22443 -12.332,-10.36132 8.7626,-2.33315 19.5722,4 19.5722,4 l 1.7188,-2.74414 c 0,0 -7.7536,-5.93148 -17.7383,-5.58594 9.4572,-2.81443 15.5879,-8.82031 15.5879,-8.82031 l -2.3399,-2.80469 c 0.082,-0.11189 -7.9812,7.3983 -14.8652,8.40234 7.3674,-5.95416 7.7031,-16.61523 7.7031,-16.61523 z m 35.4922,4.49805 -3.2852,1.36133 c 0,0 4.0556,8.2264 12.332,10.36328 -8.7626,2.33315 -19.5722,-4 -19.5722,-4 l -1.7188,2.74414 c 0,0 7.7536,5.93147 17.7383,5.58594 -9.4572,2.81442 -15.5879,8.82031 -15.5879,8.82031 l 2.3399,2.80469 c -0.082,0.11188 7.9811,-7.40026 14.8652,-8.4043 -7.3674,5.95416 -7.7012,16.61719 -7.7012,16.61719 l 3.3164,0.76367 c 0,0 0.6892,-11.45669 8.543,-14.80859 7.8538,-3.35191 19.4817,-2.15532 53.166,-4.03516 0,0 8.3975,-0.17847 42.1289,-1.54102 22.9321,-0.92633 45.7968,-2.09759 68.8106,-2.38867 11.4964,-0.12564 23.0131,-0.1051 34.4257,0.38281 5.675,0.25548 11.3498,0.62033 16.7735,1.32813 0.431,0.058 0.8622,0.1219 1.2929,0.18555 -1.4832,0.52045 -3.0199,1.01438 -4.58,1.48242 -5.319,1.58311 -10.91,2.94813 -16.543,4.32812 -5.6121,1.38418 -11.3083,2.75657 -17.0879,4.3711 -2.8689,0.81668 -5.7798,1.68524 -8.7324,2.73437 -2.9736,1.08054 -5.9682,2.21 -9.2559,4.19727 -0.8167,0.51095 -1.6757,1.0924 -2.5761,1.83789 -0.8795,0.74339 -1.8423,1.65716 -2.7637,2.97851 -0.9005,1.30461 -1.7998,3.20132 -1.9883,5.4336 -0.084,1.09729 0.021,2.20649 0.2305,3.20117 0.2722,0.87951 0.1457,0.86014 0.7949,2.18359 0.712,1.28367 1.0468,1.56057 1.5703,2.14063 0.9423,0.94233 1.7166,1.42006 2.3867,1.82422 0.6911,0.39368 1.2569,0.64032 1.8223,0.87695 1.068,0.44185 2.0111,0.72389 2.8906,0.9668 1.78,0.47744 3.3909,0.77172 4.9824,1.02929 6.2613,0.96537 12.126,1.29682 18.0313,1.58789 11.7477,0.51514 23.3068,0.53995 34.8242,0.46875 23.0138,-0.18009 45.7547,-0.87377 68.2031,-1.64648 22.4484,-0.78737 44.6046,-1.70027 66.3828,-2.61328 43.5566,-1.81975 85.6475,-3.71646 125.4766,-4.82422 19.8936,-0.51305 39.3052,-0.92596 57.7539,-0.45898 3.7801,0.10824 7.5105,0.26907 11.125,0.52539 -2.063,0.83995 -4.2288,1.62981 -6.414,2.37304 -7.8947,2.66366 -16.1036,4.8852 -24.2286,7.31641 -4.0625,1.22084 -8.1241,2.4793 -12.2285,3.97656 -2.0522,0.75387 -4.1252,1.56476 -6.2402,2.54688 -2.1569,1.01143 -4.3351,2.08159 -6.7852,3.94531 -1.2355,0.96118 -2.6168,2.12166 -3.957,4.14453 -0.6701,1.01981 -1.3404,2.29426 -1.7383,3.87109 -0.4188,1.56427 -0.5021,3.37962 -0.209,4.99415 0.1466,0.60937 0.02,0.31745 0.418,1.63671 l 0.125,0.34766 c 0,0.0649 0.3154,0.8421 0.5039,1.21484 0.2304,0.52143 0.419,0.81287 0.6074,1.09766 0.733,1.21875 1.5494,2.13273 2.3242,2.85937 1.5706,1.47004 2.9933,2.30548 4.3126,2.99024 2.5966,1.32973 4.8592,2.03683 7.0371,2.65039 2.1778,0.601 4.25,1.02946 6.2812,1.4043 8.104,1.42187 15.6008,1.94545 22.8672,2.34961 14.5119,0.71826 27.8936,0.63406 40.2695,0.4414 12.355,-0.21569 23.6638,-0.61801 33.8828,-1.04101 20.4172,-0.86276 36.393,-1.78995 47.2403,-2.32813 5.4236,-0.27223 9.5492,-0.45711 12.2715,-0.54297 2.7432,-0.09 3.9785,-0.0801 3.9785,-0.0801 l -0.041,-17.70118 c 0,0 -1.6537,2e-4 -4.5645,0.11328 -2.8898,0.10471 -7.1204,0.31369 -12.5859,0.61524 -10.9101,0.59681 -26.8241,1.59993 -47.0528,2.55273 -10.1143,0.46907 -21.3192,0.92504 -33.4648,1.19727 -12.1456,0.25129 -25.2958,0.38519 -39.0957,-0.23047 -6.8476,-0.33714 -13.9666,-0.84003 -20.7305,-1.99805 -0.759,-0.13642 -1.5149,-0.28472 -2.2597,-0.4414 0.7833,-0.31868 1.5878,-0.63256 2.4062,-0.93946 3.518,-1.31926 7.3497,-2.5381 11.2656,-3.74218 7.8528,-2.41865 16.1239,-4.70892 24.7305,-7.66993 4.2928,-1.51819 8.691,-3.12891 13.3398,-5.5664 2.3454,-1.27319 4.775,-2.6477 7.3926,-5.1543 1.2983,-1.28157 2.7211,-2.91737 3.7891,-5.42187 0.5235,-1.23969 0.9221,-2.70585 1.0058,-4.23243 0.021,-0.38112 0.043,-0.76159 0.022,-1.14062 0,-0.34762 -0.022,-0.7735 -0.1054,-1.29492 -0.063,-0.62194 -0.1055,-0.69872 -0.1055,-0.82227 0.1256,0.46279 -0.5435,-2.35605 -0.9414,-2.72461 -1.0052,-1.87838 -2.0935,-2.73464 -2.9102,-3.36914 -0.8167,-0.59681 -1.4449,-0.93967 -2.0312,-1.22656 -1.1518,-0.55283 -2.0115,-0.82488 -2.8282,-1.07617 -1.6124,-0.46698 -2.9737,-0.72878 -4.2929,-0.95703 -2.6385,-0.43766 -5.089,-0.6836 -7.5391,-0.88672 -4.8582,-0.3895 -9.6309,-0.56661 -14.4472,-0.67969 -19.1189,-0.38321 -38.5946,0.14578 -58.6348,0.76562 -40.0386,1.32346 -82.1499,3.44434 -125.6856,5.49024 -21.7573,1.02819 -43.8702,2.05658 -66.2558,2.95703 -22.3647,0.88788 -45.0241,1.69664 -67.7656,1.99609 -11.3918,0.12984 -22.8029,0.15627 -34.0899,-0.27929 -4.0642,-0.17353 -8.1799,-0.39934 -12.1055,-0.80274 0.028,-0.0103 0.056,-0.021 0.084,-0.0312 2.5129,-0.90673 5.1522,-1.72686 7.8535,-2.50586 5.3818,-1.55589 10.9725,-2.94684 16.6055,-4.375 5.6331,-1.43234 11.3289,-2.86332 17.1504,-4.63281 2.9108,-0.90045 5.8431,-1.8624 8.9004,-3.15234 1.5077,-0.65545 3.0786,-1.38157 4.7539,-2.38672 0.8167,-0.50467 1.6958,-1.08681 2.6172,-1.85742 0.9214,-0.779 1.9273,-1.7343 2.8906,-3.27344 0.4607,-0.77271 0.9197,-1.71326 1.2129,-2.81055 0.1466,-0.59262 0.2321,-1.00626 0.2949,-1.84179 0.021,-1.36324 0.062,-0.24254 -0.043,-1.77539 -0.2095,-1.72133 -0.963,-3.25031 -1.7168,-4.23243 -0.7539,-0.9884 -1.4862,-1.61809 -2.1563,-2.12695 -1.2983,-0.94861 -2.3888,-1.43275 -3.373,-1.85156 -0.9633,-0.40416 -1.8837,-0.69584 -2.7422,-0.94922 -3.4552,-0.97374 -6.5135,-1.4223 -9.5918,-1.82227 -6.1147,-0.74967 -12.0406,-1.07448 -17.9668,-1.30273 -11.8106,-0.41881 -23.5152,-0.34822 -35.1582,-0.13672 -23.286,0.46488 -46.1965,1.91369 -69.293,2.91016 -33.696,1.45376 -44.5937,2.52148 -44.5937,2.52148 -33.7136,1.93411 -44.2187,2.18409 -51.9102,1.41016 -4.816,-0.48459 -9.3691,-7.67969 -9.3691,-7.67969 z"
       id="path60"
       inkscape:connector-curvature="0"
       transform="matrix(-4.7753973,0,0,-4.7753973,22780.569,6013.5064)" /></g><g
     transform="scale(1.14343)"
     id="g62" /><g
     transform="scale(1.00459)"
     id="g122" /><g
     transform="scale(1.00458)"
     id="g126" /><g
     transform="scale(1.00726)"
     id="g130" /><g
     transform="scale(1.01104)"
     id="g134" /><g
     transform="scale(1.01252)"
     id="g138" /><g
     transform="scale(1.01567)"
     id="g142" /><g
     transform="scale(1.01986)"
     id="g146" /><g
     transform="scale(1.02158)"
     id="g150" /><g
     transform="scale(1.1136)"
     id="g220" /><g
     transform="scale(1.11001)"
     id="g224" /><g
     transform="scale(1.10498)"
     id="g228" /><g
     transform="scale(1.10941)"
     id="g232" /><g
     transform="scale(1.11323)"
     id="g236" /><g
     transform="scale(1.10828)"
     id="g240" /><g
     transform="scale(1.02279)"
     id="g244" /><g
     transform="scale(1.02751)"
     id="g248" /><g
     transform="scale(1.0285)"
     id="g252" /><g
     transform="scale(1.03124)"
     id="g256" /><g
     transform="scale(1.03147)"
     id="g260" /><g
     transform="scale(1.03483)"
     id="g264" /><g
     transform="scale(1.03914)"
     id="g268" /><g
     transform="scale(1.04329)"
     id="g272" /><g
     transform="scale(1.04666)"
     id="g276" /><g
     transform="scale(1.09455)"
     id="g280" /><g
     transform="scale(1.09928)"
     id="g284" /><g
     transform="scale(1.10027)"
     id="g288" /><g
     transform="scale(1.10301)"
     id="g292" /><g
     transform="scale(1.10325)"
     id="g296" /><g
     transform="scale(1.1066)"
     id="g300" /><g
     transform="scale(1.1109)"
     id="g304" /><g
     transform="scale(1.11506)"
     id="g308" /><g
     transform="scale(1.11844)"
     id="g312" /><g
     transform="scale(1.10066)"
     id="g316" /><g
     transform="scale(1.10539)"
     id="g320" /><g
     transform="scale(1.10638)"
     id="g324" /><g
     transform="scale(1.10912)"
     id="g328" /><g
     transform="scale(1.10935)"
     id="g332" /><g
     transform="scale(1.11271)"
     id="g336" /><g
     transform="scale(1.11701)"
     id="g340" /><g
     transform="scale(1.12117)"
     id="g344" /><g
     transform="scale(1.12454)"
     id="g348" /><g
     transform="scale(1.00204)"
     id="g456" /><g
     transform="scale(1.00275)"
     id="g500" /><g
     transform="scale(1.00829)"
     id="g512" /><g
     transform="scale(1.00806)"
     id="g516" /><g
     transform="scale(1.01561)"
     id="g520" /><g
     transform="scale(1.08315)"
     id="g710" /><g
     transform="scale(1.08475)"
     id="g714" /><g
     transform="scale(1.08818)"
     id="g718" /><g
     transform="scale(1.08807)"
     id="g722" /><g
     transform="scale(1.09126)"
     id="g726" /><g
     transform="scale(1.09443)"
     id="g730" /><g
     transform="scale(1.07863)"
     id="g734" /><g
     transform="scale(1.08015)"
     id="g738" /><g
     transform="scale(1.08036)"
     id="g742" /><g
     transform="scale(1.0836)"
     id="g746" /><g
     transform="scale(1.08504)"
     id="g750" /><g
     transform="scale(1.08733)"
     id="g754" /><g
     transform="scale(1.09087)"
     id="g758" /><g
     transform="scale(1.0526)"
     id="g762" /><g
     transform="scale(1.05581)"
     id="g766" /><g
     transform="scale(1.05504)"
     id="g770" /><g
     transform="scale(1.0605)"
     id="g774" /><g
     transform="scale(1.0634)"
     id="g778" /><g
     transform="scale(1.06142)"
     id="g782" /><g
     transform="scale(1.06466)"
     id="g786" /><g
     transform="scale(1.06587)"
     id="g790" /><g
     transform="scale(1.06639)"
     id="g794" /><g
     transform="scale(1.00698)"
     id="g848" /><g
     transform="scale(1.00453)"
     id="g852" /><g
     transform="scale(1.00663)"
     id="g856" /><g
     transform="scale(1.00602)"
     id="g860" /><g
     transform="scale(1.00906)"
     id="g864" /><g
     transform="scale(1.00871)"
     id="g868" /><g
     transform="scale(1.01107)"
     id="g872" /><g
     transform="scale(1.01201)"
     id="g876" /><g
     transform="scale(1.01345)"
     id="g880" /><g
     transform="scale(1.0129)"
     id="g884" /><g
     transform="scale(1.01456)"
     id="g888" /><g
     transform="scale(1.01465)"
     id="g892" /><g
     transform="scale(1.01631)"
     id="g896" /><g
     transform="scale(1.01786)"
     id="g900" /><g
     transform="scale(1.0176)"
     id="g904" /><g
     transform="scale(1.01999)"
     id="g908" /><g
     transform="scale(1.02017)"
     id="g912" /><g
     transform="scale(1.01959)"
     id="g916" /><g
     transform="scale(1.01936)"
     id="g920" /><g
     transform="scale(1.02079)"
     id="g924" /><g
     transform="scale(1.0218)"
     id="g928" /><g
     transform="scale(1.02181)"
     id="g932" /><g
     transform="scale(1.01541)"
     id="g1076" /><g
     transform="scale(1.01442)"
     id="g1080" /><g
     transform="scale(1.017)"
     id="g1084" /><g
     transform="scale(1.02012)"
     id="g1088" /><g
     transform="scale(1.02345)"
     id="g1092" /><g
     transform="scale(1.02555)"
     id="g1096" /><g
     transform="scale(1.00011)"
     id="g1124" /><g
     transform="scale(1.02334)"
     id="g1132" /><g
     transform="scale(1.0252)"
     id="g1136" /><g
     transform="scale(1.02656)"
     id="g1140" /><g
     transform="scale(1.02963)"
     id="g1144" /><g
     transform="scale(1.0418)"
     id="g1190" /><g
     transform="scale(1.04563)"
     id="g1194" /><g
     transform="scale(1.04533)"
     id="g1198" /><g
     transform="scale(1.04912)"
     id="g1202" /><g
     transform="scale(1.05232)"
     id="g1206" /><g
     transform="scale(1.05083)"
     id="g1210" /><g
     transform="scale(1.04956)"
     id="g1214" /><g
     transform="scale(1.05974)"
     id="g1218" /><g
     transform="scale(1.06433)"
     id="g1222" /><g
     transform="scale(1.06699)"
     id="g1226" /><g
     transform="scale(1.07146)"
     id="g1230" /><g
     transform="scale(1.08119)"
     id="g1234" /><g
     transform="scale(1.06594)"
     id="g1248" /><g
     transform="scale(1.07225)"
     id="g1252" /><g
     transform="scale(1.07091)"
     id="g1256" /><g
     transform="scale(1.06547)"
     id="g1260" /><g
     transform="scale(1.05617)"
     id="g1290" /><g
     transform="scale(1.05596)"
     id="g1294" /><g
     transform="scale(1.05851)"
     id="g1298" /><g
     transform="scale(1.05804)"
     id="g1302" /><g
     transform="scale(1.06209)"
     id="g1306" /><g
     transform="scale(1.0534)"
     id="g1310" /><g
     transform="scale(1.05814)"
     id="g1314" /><g
     transform="scale(1.05785)"
     id="g1318" /><g
     transform="scale(1.05699)"
     id="g1322" /><g
     transform="scale(1.06407)"
     id="g1326" /><g
     transform="scale(1.06347)"
     id="g1330" /><g
     transform="scale(1.06396)"
     id="g1334" /><g
     transform="scale(1.08477)"
     id="g1338" /><g
     transform="scale(1.08871)"
     id="g1342" /><g
     transform="scale(1.09084)"
     id="g1346" /><g
     transform="scale(1.0901)"
     id="g1350" /><g
     transform="scale(1.09658)"
     id="g1354" /><g
     transform="scale(1.09661)"
     id="g1358" /><g
     transform="scale(1.09934)"
     id="g1362" /><g
     transform="scale(1.08414)"
     id="g1542" /><g
     transform="scale(1.08961)"
     id="g1546" /><g
     transform="scale(1.09158)"
     id="g1550" /><g
     transform="scale(1.08968)"
     id="g1554" /><g
     transform="scale(1.08679)"
     id="g1558" /><g
     transform="scale(1.08666)"
     id="g1562" /><g
     transform="scale(1.09039)"
     id="g1566" /><g
     transform="scale(1.09223)"
     id="g1570" /><g
     transform="scale(1.09164)"
     id="g1574" /><g
     transform="scale(1.09334)"
     id="g1578" /><g
     transform="scale(1.09474)"
     id="g1582" /><g
     transform="scale(1.09142)"
     id="g1586" /><g
     transform="scale(1.09346)"
     id="g1590" /><g
     transform="scale(1.09676)"
     id="g1594" /><g
     transform="scale(1.09886)"
     id="g1598" /><g
     transform="scale(1.1025)"
     id="g1602" /><g
     transform="scale(1.07912)"
     id="g1606" /><g
     transform="scale(1.07987)"
     id="g1610" /><g
     transform="scale(1.08236)"
     id="g1614" /><g
     transform="scale(1.08301)"
     id="g1618" /><g
     transform="scale(1.08569)"
     id="g1622" /><g
     transform="scale(1.08663)"
     id="g1626" /><g
     transform="scale(1.08222)"
     id="g1630" /><g
     transform="scale(1.08513)"
     id="g1634" /><g
     transform="scale(1.10333)"
     id="g1638" /><g
     transform="scale(1.10671)"
     id="g1642" /><g
     transform="scale(1.10931)"
     id="g1646" /><g
     transform="scale(1.10801)"
     id="g1650" /><g
     transform="scale(1.11296)"
     id="g1654" /><g
     transform="scale(1.11203)"
     id="g1658" /><g
     transform="scale(1.11134)"
     id="g1662" /><g
     transform="scale(1.11162)"
     id="g1666" /><g
     transform="scale(1.10655)"
     id="g1670" /><g
     transform="scale(1.10863)"
     id="g1674" /><g
     transform="scale(1.11148)"
     id="g1678" /><g
     transform="scale(1.10681)"
     id="g1682" /><g
     transform="scale(1.10702)"
     id="g1686" /><g
     transform="scale(1.11101)"
     id="g1690" /><g
     transform="scale(1.10987)"
     id="g1694" /><g
     transform="scale(1.11125)"
     id="g1698" /><g
     transform="scale(1.11187)"
     id="g1702" /><g
     transform="scale(1.11)"
     id="g1706" /><g
     transform="scale(1.10631)"
     id="g1710" /><g
     transform="scale(1.10532)"
     id="g1714" /><g
     transform="scale(1.10856)"
     id="g1718" /><g
     transform="scale(1.11334)"
     id="g1722" /><g
     transform="scale(1.11348)"
     id="g1726" /><g
     transform="scale(1.11411)"
     id="g1730" /><g
     transform="scale(1.11406)"
     id="g1734" /><g
     transform="scale(1.07173)"
     id="g1738" /><g
     transform="scale(1.07357)"
     id="g1742" /><g
     transform="scale(1.07375)"
     id="g1746" /><g
     transform="scale(1.07735)"
     id="g1750" /><g
     transform="scale(1.07917)"
     id="g1754" /><g
     transform="scale(1.08131)"
     id="g1758" /><g
     transform="scale(1.08312)"
     id="g1762" /><g
     transform="scale(1.08732)"
     id="g1766" /><g
     transform="scale(1.08949)"
     id="g1770" /><g
     transform="scale(1.0687)"
     id="g1774" /><g
     transform="scale(1.0682)"
     id="g1778" /><g
     transform="scale(1.07226)"
     id="g1782" /><g
     transform="scale(1.09933)"
     id="g1786" /><g
     transform="scale(1.10179)"
     id="g1790" /><g
     transform="scale(1.10331)"
     id="g1794" /><g
     transform="scale(1.10921)"
     id="g1798" /><g
     transform="scale(1.02365)"
     id="g1802" /><g
     transform="scale(1.02622)"
     id="g1806" /><g
     transform="scale(1.02908)"
     id="g1810" /><g
     transform="scale(1.0301)"
     id="g1814" /><g
     transform="scale(1.03249)"
     id="g1818" /><g
     transform="scale(1.03571)"
     id="g1822" /><g
     transform="scale(1.03775)"
     id="g1826" /><g
     transform="scale(1.04015)"
     id="g1830" /><g
     transform="scale(1.04208)"
     id="g1834" /><g
     transform="scale(1.01185)"
     id="g1838" /><g
     transform="scale(1.0126)"
     id="g1842" /><g
     transform="scale(1.0155)"
     id="g1846" /><g
     transform="scale(1.02258)"
     id="g1850" /><g
     transform="scale(1.02848)"
     id="g1854" /><g
     transform="scale(1.0349)"
     id="g1858" /><g
     transform="scale(1.10324)"
     id="g1862" /><g
     transform="scale(1.1096)"
     id="g1866" /><g
     transform="scale(1.10995)"
     id="g1870" /><g
     transform="scale(1.01342)"
     id="g1874" /><g
     transform="scale(1.01207)"
     id="g1878" /><g
     transform="scale(1.01264)"
     id="g1882" /><g
     transform="scale(1.01823)"
     id="g1886" /><g
     transform="scale(1.01904)"
     id="g1890" /><g
     transform="scale(1.02994)"
     id="g1894" /><g
     transform="scale(1.03874)"
     id="g1898" /><g
     transform="scale(1.04241)"
     id="g1902" /><g
     transform="scale(1.00894)"
     id="g1940" /><g
     transform="scale(1.01126)"
     id="g1944" /><g
     transform="scale(1.01723)"
     id="g1948" /><g
     transform="scale(1.02356)"
     id="g1952" /><g
     transform="scale(1.04704)"
     id="g1956" /><g
     transform="scale(1.05034)"
     id="g1960" /><g
     transform="scale(1.05352)"
     id="g1964" /><g
     transform="scale(1.05823)"
     id="g1968" /><g
     transform="scale(1.04107)"
     id="g1972" /><g
     transform="scale(1.04168)"
     id="g1976" /><g
     transform="scale(1.04391)"
     id="g1980" /><g
     transform="scale(1.04642)"
     id="g1984" /><g
     transform="scale(1.07529)"
     id="g1988" /><g
     transform="scale(1.07933)"
     id="g1992" /><g
     transform="scale(1.08234)"
     id="g1996" /><g
     transform="scale(1.08526)"
     id="g2000" /><g
     transform="scale(1.08506)"
     id="g2004" /><g
     transform="scale(1.08964)"
     id="g2008" /><g
     transform="scale(1.09091)"
     id="g2012" /><g
     transform="scale(1.05337)"
     id="g2016" /><g
     transform="scale(1.05774)"
     id="g2020" /><g
     transform="scale(1.05997)"
     id="g2024" /><g
     transform="scale(1.06131)"
     id="g2028" /><g
     transform="scale(1.06429)"
     id="g2032" /><g
     transform="scale(1.06698)"
     id="g2036" /><g
     transform="scale(1.06949)"
     id="g2040" /><g
     transform="scale(1.07156)"
     id="g2044" /><g
     transform="scale(1.07307)"
     id="g2048" /><g
     transform="scale(1.06617)"
     id="g2052" /><g
     transform="scale(1.06817)"
     id="g2056" /><g
     transform="scale(1.07006)"
     id="g2060" /><g
     transform="scale(1.07289)"
     id="g2064" /><g
     transform="scale(1.06626)"
     id="g2068" /><g
     transform="scale(1.06882)"
     id="g2072" /><g
     transform="scale(1.06194)"
     id="g2076" /><g
     transform="scale(1.07385)"
     id="g2080" /><g
     transform="scale(1.07576)"
     id="g2084" /><g
     transform="scale(1.07733)"
     id="g2088" /><g
     transform="scale(1.08121)"
     id="g2092" /><g
     transform="scale(1.08274)"
     id="g2096" /><g
     transform="scale(1.08055)"
     id="g2100" /><g
     transform="scale(1.08425)"
     id="g2104" /><g
     transform="scale(1.08613)"
     id="g2108" /><g
     transform="scale(1.08744)"
     id="g2112" /><g
     transform="scale(1.08621)"
     id="g2116" /><g
     transform="scale(1.08946)"
     id="g2120" /><g
     transform="scale(1.09298)"
     id="g2124" /><g
     transform="scale(1.09388)"
     id="g2128" /><g
     transform="scale(1.09434)"
     id="g2132" /><g
     transform="scale(1.0863)"
     id="g2136" /><g
     transform="scale(1.08963)"
     id="g2140" /><g
     transform="scale(1.0917)"
     id="g2144" /><g
     transform="scale(1.09294)"
     id="g2148" /><g
     transform="scale(1.09555)"
     id="g2152" /><g
     transform="scale(1.09645)"
     id="g2156" /><g
     transform="scale(1.08434)"
     id="g2160" /><g
     transform="scale(1.08106)"
     id="g2164" /><g
     transform="scale(1.07982)"
     id="g2168" /><g
     transform="scale(1.07815)"
     id="g2172" /><g
     transform="scale(1.07653)"
     id="g2176" /><g
     transform="scale(1.07017)"
     id="g2182" /><g
     transform="scale(1.03708)"
     id="g2186" /><g
     transform="scale(1.03664)"
     id="g2190" /><g
     transform="scale(1.03865)"
     id="g2194" /><g
     transform="scale(1.07264)"
     id="g2198" /><g
     transform="scale(1.07364)"
     id="g2202" /><g
     transform="scale(1.07491)"
     id="g2206" /><g
     transform="scale(1.07879)"
     id="g2210" /><g
     transform="scale(1.07919)"
     id="g2214" /><g
     transform="scale(1.0686)"
     id="g2218" /><g
     transform="scale(1.07148)"
     id="g2222" /><g
     transform="scale(1.07396)"
     id="g2226" /><g
     transform="scale(1.09626)"
     id="g2230" /><g
     transform="scale(1.11145)"
     id="g2234" /><g
     transform="scale(1.1111)"
     id="g2238" /><g
     transform="scale(1.11337)"
     id="g2242" /><g
     transform="scale(1.10113)"
     id="g2246" /><g
     transform="scale(1.10072)"
     id="g2250" /><g
     transform="scale(1.10337)"
     id="g2254" /><g
     transform="scale(1.10717)"
     id="g2258" /><g
     transform="scale(1.10733)"
     id="g2262" /><g
     transform="scale(1.10779)"
     id="g2266" /><g
     transform="scale(1.10566)"
     id="g2270" /><g
     transform="scale(1.11212)"
     id="g2274" /><g
     transform="scale(1.11229)"
     id="g2278" /><g
     transform="scale(1.10805)"
     id="g2282" /><g
     transform="scale(1.10834)"
     id="g2286" /><g
     transform="scale(1.11079)"
     id="g2290" /><g
     transform="scale(1.11059)"
     id="g2294" /><g
     transform="scale(1.11048)"
     id="g2298" /><g
     transform="scale(1.11113)"
     id="g2302" /><g
     transform="scale(1.11367)"
     id="g2306" /><g
     transform="scale(1.11275)"
     id="g2310" /><g
     transform="scale(1.0644)"
     id="g2314" /><g
     transform="scale(1.06466)"
     id="g2318" /><g
     transform="scale(1.06613)"
     id="g2322" /><g
     transform="scale(1.0665)"
     id="g2326" /><g
     transform="scale(1.06854)"
     id="g2330" /><g
     transform="scale(1.07075)"
     id="g2334" /><g
     transform="scale(1.07215)"
     id="g2338" /><g
     transform="scale(1.06803)"
     id="g2342" /><g
     transform="scale(1.07002)"
     id="g2346" /><g
     transform="scale(1.06999)"
     id="g2350" /><g
     transform="scale(1.07212)"
     id="g2354" /><g
     transform="scale(1.03639)"
     id="g2358" /><g
     transform="scale(1.0412)"
     id="g2362" /><g
     transform="scale(1.04453)"
     id="g2366" /><g
     transform="scale(1.04611)"
     id="g2370" /><g
     transform="scale(1.04948)"
     id="g2374" /><g
     transform="scale(1.0524)"
     id="g2378" /><g
     transform="scale(1.05493)"
     id="g2382" /><g
     transform="scale(1.02695)"
     id="g2386" /><g
     transform="scale(1.02371)"
     id="g2390" /><g
     transform="scale(1.02564)"
     id="g2394" /><g
     transform="scale(1.02911)"
     id="g2398" /><g
     transform="scale(1.03393)"
     id="g2402" /><g
     transform="scale(1.03272)"
     id="g2406" /><g
     transform="scale(1.03661)"
     id="g2410" /><g
     transform="scale(1.03863)"
     id="g2414" /><g
     transform="scale(1.04156)"
     id="g2418" /><g
     transform="scale(1.04307)"
     id="g2422" /><g
     transform="scale(1.04791)"
     id="g2426" /><g
     transform="scale(1.05108)"
     id="g2430" /><g
     transform="scale(1.0515)"
     id="g2434" /><g
     transform="scale(1.05816)"
     id="g2444" /><g
     transform="scale(1.06163)"
     id="g2448" /><g
     transform="scale(1.06198)"
     id="g2452" /><g
     transform="scale(1.06494)"
     id="g2456" /><g
     transform="scale(1.06807)"
     id="g2460" /><g
     transform="scale(1.07272)"
     id="g2464" /><g
     transform="scale(1.01253)"
     id="g2468" /><g
     transform="scale(1.01775)"
     id="g2472" /><g
     transform="scale(1.02195)"
     id="g2476" /><g
     transform="scale(1.0376)"
     id="g2480" /><g
     transform="scale(1.04186)"
     id="g2484" /><g
     transform="scale(1.04195)"
     id="g2488" /><g
     transform="scale(1.04733)"
     id="g2492" /><g
     transform="scale(1.04831)"
     id="g2496" /><g
     transform="scale(1.05308)"
     id="g2500" /><g
     transform="scale(1.07406)"
     id="g2504" /><g
     transform="scale(1.06895)"
     id="g2508" /><g
     transform="scale(1.06858)"
     id="g2512" /><g
     transform="scale(1.07569)"
     id="g2516" /><g
     transform="scale(1.08172)"
     id="g2520" /><g
     transform="scale(1.08667)"
     id="g2524" /><g
     transform="scale(1.08718)"
     id="g2528" /><g
     transform="scale(1.10326)"
     id="g2532" /><g
     transform="scale(1.10323)"
     id="g2536" /><g
     transform="scale(1.10268)"
     id="g2540" /><g
     transform="scale(1.09673)"
     id="g2544" /><g
     transform="scale(1.09621)"
     id="g2548" /><g
     transform="scale(1.10123)"
     id="g2552" /><g
     transform="scale(1.10483)"
     id="g2556" /><g
     transform="scale(1.10717)"
     id="g2560" /><g
     transform="scale(1.10847)"
     id="g2564" /><g
     transform="scale(1.11134)"
     id="g2568" /><g
     transform="scale(1.11408)"
     id="g2572" /><g
     transform="scale(1.11664)"
     id="g2576" /><g
     transform="scale(1.11856)"
     id="g2580" /><g
     transform="scale(1.12017)"
     id="g2584" /><g
     transform="scale(1.06823)"
     id="g2588" /><g
     transform="scale(1.069)"
     id="g2592" /><g
     transform="scale(1.07067)"
     id="g2596" /><g
     transform="scale(1.07119)"
     id="g2600" /><g
     transform="scale(1.07563)"
     id="g2604" /><g
     transform="scale(1.07726)"
     id="g2608" /><g
     transform="scale(1.07781)"
     id="g2612" /><g
     transform="scale(1.07308)"
     id="g2616" /><g
     transform="scale(1.07741)"
     id="g2620" /><g
     transform="scale(1.0797)"
     id="g2624" /><g
     transform="scale(1.08119)"
     id="g2628" /><g
     transform="scale(1.08041)"
     id="g2632" /><g
     transform="scale(1.02489)"
     id="g2636" /><g
     transform="scale(1.0284)"
     id="g2640" /><g
     transform="scale(1.02877)"
     id="g2644" /><g
     transform="scale(1.03258)"
     id="g2648" /><g
     transform="scale(1.07642)"
     id="g2652" /><g
     transform="scale(1.07628)"
     id="g2656" /><g
     transform="scale(1.07914)"
     id="g2660" /><g
     transform="scale(1.0796)"
     id="g2664" /><g
     transform="scale(1.08134)"
     id="g2668" /><g
     transform="scale(1.08371)"
     id="g2672" /><g
     transform="scale(1.08458)"
     id="g2676" /><g
     transform="scale(1.10287)"
     id="g2680" /><g
     transform="scale(1.10595)"
     id="g2684" /><g
     transform="scale(1.10844)"
     id="g2688" /><g
     transform="scale(1.08971)"
     id="g2692" /><g
     transform="scale(1.05755)"
     id="g2696" /><g
     transform="scale(1.06196)"
     id="g2700" /><g
     transform="scale(1.09106)"
     id="g2704" /><g
     transform="scale(1.07736)"
     id="g2708" /><g
     transform="scale(1.081)"
     id="g2712" /><g
     transform="scale(1.08229)"
     id="g2716" /><g
     transform="scale(1.08641)"
     id="g2720" /><g
     transform="scale(1.08109)"
     id="g2724" /><g
     transform="scale(1.0801)"
     id="g2728" /><g
     transform="scale(1.08385)"
     id="g2732" /><g
     transform="scale(1.05054)"
     id="g2736" /><g
     transform="scale(1.05678)"
     id="g2740" /><g
     transform="scale(1.08507)"
     id="g2856" /><g
     transform="scale(1.0884)"
     id="g2860" /><g
     transform="scale(1.08731)"
     id="g2864" /><g
     transform="scale(1.09417)"
     id="g2868" /><g
     transform="scale(1.09941)"
     id="g2872" /><g
     transform="scale(1.10712)"
     id="g2876" /><g
     transform="scale(1.10948)"
     id="g2880" /><g
     transform="scale(1.10909)"
     id="g2884" /><g
     transform="scale(1.08794)"
     id="g3272" /><g
     transform="scale(1.09)"
     id="g3276" /><g
     transform="scale(1.08882)"
     id="g3280" /><g
     transform="scale(1.09782)"
     id="g3284" /><g
     transform="scale(1.03402)"
     id="g3288" /><g
     transform="scale(1.03413)"
     id="g3292" /><g
     transform="scale(1.03702)"
     id="g3296" /><g
     transform="scale(1.11474)"
     id="g3300" /><g
     transform="scale(1.11457)"
     id="g3304" /><g
     transform="scale(1.11321)"
     id="g3308" /><g
     transform="scale(1.0906)"
     id="g3312" /><g
     transform="scale(1.09306)"
     id="g3316" /><g
     transform="scale(1.09862)"
     id="g3320" /><g
     transform="scale(1.09975)"
     id="g3324" /><g
     transform="scale(1.10146)"
     id="g3328" /><g
     transform="scale(1.1074)"
     id="g3332" /><g
     transform="scale(1.06874)"
     id="g3336" /><g
     transform="scale(1.11129)"
     id="g3340" /><g
     transform="scale(1.11058)"
     id="g3344" /><g
     transform="scale(1.0926)"
     id="g3348" /><g
     transform="scale(1.09387)"
     id="g3352" /><g
     transform="scale(1.09498)"
     id="g3356" /><g
     transform="scale(1.08643)"
     id="g3360" /><g
     transform="scale(1.11537)"
     id="g3364" /><g
     transform="scale(1.11397)"
     id="g3368" /><g
     transform="scale(1.1138)"
     id="g3372" /><g
     transform="scale(1.10789)"
     id="g3376" /><g
     transform="scale(1.06221)"
     id="g3380" /><g
     transform="scale(1.06071)"
     id="g3384" /><g
     transform="scale(1.06544)"
     id="g3388" /><g
     transform="scale(1.06871)"
     id="g3392" /><g
     transform="scale(1.07005)"
     id="g3396" /><g
     transform="scale(1.04983)"
     id="g3400" /><g
     transform="scale(1.06956)"
     id="g3404" /><g
     transform="scale(1.08615)"
     id="g3408" /><g
     transform="scale(1.03428)"
     id="g3432" /><g
     transform="scale(1.03344)"
     id="g3436" /><g
     transform="scale(1.03936)"
     id="g3440" /><g
     transform="scale(1.04185)"
     id="g3444" /><g
     transform="scale(1.0482)"
     id="g3448" /><g
     transform="scale(1.0491)"
     id="g3456" /><g
     transform="scale(1.04923)"
     id="g3460" /><g
     transform="scale(1.05318)"
     id="g3464" /><g
     transform="scale(1.05389)"
     id="g3468" /><g
     transform="scale(1.05378)"
     id="g3472" /><g
     transform="scale(1.05831)"
     id="g3476" /><g
     transform="scale(1.1009)"
     id="g3482" /><g
     transform="scale(1.0958)"
     id="g3486" /><g
     transform="scale(1.06208)"
     id="g3490" /><g
     transform="scale(1.06424)"
     id="g3494" /><g
     transform="scale(1.04349)"
     id="g3498" /><g
     transform="scale(1.04396)"
     id="g3502" /><g
     transform="scale(1.04704)"
     id="g3506" /><g
     transform="scale(1.04988)"
     id="g3510" /><g
     transform="scale(1.05823)"
     id="g3514" /><g
     transform="scale(1.06066)"
     id="g3518" /><g
     transform="scale(1.04054)"
     id="g3522" /><g
     transform="scale(1.03044)"
     id="g3526" /><g
     transform="scale(1.02394)"
     id="g3530" /><g
     transform="scale(1.08398)"
     id="g3534" /><g
     transform="scale(1.08309)"
     id="g3538" /><g
     transform="scale(1.0834)"
     id="g3542" /><g
     transform="scale(1.08527)"
     id="g3546" /><g
     transform="scale(1.08445)"
     id="g3550" /><g
     transform="scale(1.08883)"
     id="g3554" /><g
     transform="scale(1.09093)"
     id="g3558" /><g
     transform="scale(1.094)"
     id="g3562" /><g
     transform="scale(1.0834)"
     id="g3566" /><g
     transform="scale(1.0858)"
     id="g3570" /><g
     transform="scale(1.09375)"
     id="g3576" /><g
     transform="scale(1.09439)"
     id="g3580" /><g
     transform="scale(1.09641)"
     id="g3584" /><g
     transform="scale(1.09819)"
     id="g3588" /><g
     transform="scale(1.08958)"
     id="g3592" /><g
     transform="scale(1.08718)"
     id="g3596" /><g
     transform="scale(1.11912)"
     id="g3600" /><g
     transform="scale(1.09924)"
     id="g4240" /><g
     transform="scale(1.10278)"
     id="g4244" /><g
     transform="scale(1.10291)"
     id="g4248" /><g
     transform="scale(1.10593)"
     id="g4252" /><g
     transform="scale(1.11013)"
     id="g4256" /><g
     transform="scale(1.10931)"
     id="g4260" /><g
     transform="scale(1.1102)"
     id="g4264" /><g
     transform="scale(1.11416)"
     id="g4268" /><g
     transform="scale(1.11404)"
     id="g4272" /><g
     transform="scale(1.09158)"
     id="g4276" /><g
     transform="scale(1.09372)"
     id="g4280" /><g
     transform="scale(1.09463)"
     id="g4284" /><g
     transform="scale(1.10072)"
     id="g4288" /><g
     transform="scale(1.10393)"
     id="g4292" /><g
     transform="scale(1.10351)"
     id="g4296" /><g
     transform="scale(1.11006)"
     id="g4300" /><g
     transform="scale(1.10793)"
     id="g4304" /><g
     transform="scale(1.10194)"
     id="g4308" /><g
     transform="scale(1.10354)"
     id="g4312" /><g
     transform="scale(1.1033)"
     id="g4316" /><g
     transform="scale(1.10581)"
     id="g4320" /><g
     transform="scale(1.1078)"
     id="g4324" /><g
     transform="scale(1.10369)"
     id="g4328" /><g
     transform="scale(1.10974)"
     id="g4332" /><g
     transform="scale(1.11022)"
     id="g4336" /><g
     transform="scale(1.11356)"
     id="g4340" /><g
     transform="scale(1.07307)"
     id="g4344" /><g
     transform="scale(1.07582)"
     id="g4348" /><g
     transform="scale(1.07602)"
     id="g4352" /><g
     transform="scale(1.08167)"
     id="g4356" /><g
     transform="scale(1.08153)"
     id="g4360" /><g
     transform="scale(1.08244)"
     id="g4364" /><g
     transform="scale(1.08174)"
     id="g4368" /><g
     transform="scale(1.08964)"
     id="g4372" /><g
     transform="scale(1.09271)"
     id="g4376" /><g
     transform="scale(1.09574)"
     id="g4380" /><g
     transform="scale(1.08974)"
     id="g4384" /><g
     transform="scale(1.09334)"
     id="g4388" /><g
     transform="scale(1.09282)"
     id="g4392" /><g
     transform="scale(1.09547)"
     id="g4396" /><g
     transform="scale(1.07529)"
     id="g4400" /><g
     transform="scale(1.07733)"
     id="g4404" /><g
     transform="scale(1.07728)"
     id="g4408" /><g
     transform="scale(1.07973)"
     id="g4412" /><g
     transform="scale(1.07945)"
     id="g4416" /><g
     transform="scale(1.0816)"
     id="g4420" /><g
     transform="scale(1.10082)"
     id="g4424" /><g
     transform="scale(1.10061)"
     id="g4428" /><g
     transform="scale(1.10301)"
     id="g4432" /><g
     transform="scale(1.10257)"
     id="g4436" /><g
     transform="scale(1.10637)"
     id="g4440" /><g
     transform="scale(1.10264)"
     id="g4444" /><g
     transform="scale(1.10157)"
     id="g4448" /><g
     transform="scale(1.10821)"
     id="g4452" /><g
     transform="scale(1.10765)"
     id="g4456" /><g
     transform="scale(1.10811)"
     id="g4460" /><g
     transform="scale(1.12864)"
     id="g4464" /><g
     transform="scale(1.12842)"
     id="g4468" /><g
     transform="scale(1.13083)"
     id="g4472" /><g
     transform="scale(1.13039)"
     id="g4476" /><g
     transform="scale(1.13419)"
     id="g4480" /><g
     transform="scale(1.13047)"
     id="g4484" /><g
     transform="scale(1.12939)"
     id="g4488" /><g
     transform="scale(1.13603)"
     id="g4492" /><g
     transform="scale(1.13547)"
     id="g4496" /><g
     transform="scale(1.13593)"
     id="g4500" /><g
     transform="scale(1.09456)"
     id="g4504" /><g
     transform="scale(1.09498)"
     id="g4508" /><g
     transform="scale(1.09571)"
     id="g4512" /><g
     transform="scale(1.09642)"
     id="g4516" /><g
     transform="scale(1.08407)"
     id="g4520" /><g
     transform="scale(1.08531)"
     id="g4524" /><g
     transform="scale(1.08552)"
     id="g4528" /><g
     transform="scale(1.08622)"
     id="g4532" /><g
     transform="scale(1.08631)"
     id="g4536" /><g
     transform="scale(1.08855)"
     id="g4540" /><g
     transform="scale(1.08826)"
     id="g4544" /><g
     transform="scale(1.08902)"
     id="g4548" /><g
     transform="scale(1.08935)"
     id="g4552" /><g
     transform="scale(1.08125)"
     id="g4556" /><g
     transform="scale(1.08081)"
     id="g4560" /><g
     transform="scale(1.08334)"
     id="g4564" /><g
     transform="scale(1.08483)"
     id="g4568" /><g
     transform="scale(1.08577)"
     id="g4572" /><g
     transform="scale(1.09177)"
     id="g4576" /><g
     transform="scale(1.09283)"
     id="g4580" /><g
     transform="scale(1.09266)"
     id="g4584" /><g
     transform="scale(1.09548)"
     id="g4588" /><g
     transform="scale(1.09829)"
     id="g4592" /><g
     transform="scale(1.10063)"
     id="g4596" /><g
     transform="scale(1.09597)"
     id="g4600" /><g
     transform="scale(1.09639)"
     id="g4604" /><g
     transform="scale(1.09712)"
     id="g4608" /><g
     transform="scale(1.09783)"
     id="g4612" /><g
     transform="scale(1.08548)"
     id="g4616" /><g
     transform="scale(1.08672)"
     id="g4620" /><g
     transform="scale(1.08692)"
     id="g4624" /><g
     transform="scale(1.08763)"
     id="g4628" /><g
     transform="scale(1.08772)"
     id="g4632" /><g
     transform="scale(1.08996)"
     id="g4636" /><g
     transform="scale(1.08967)"
     id="g4640" /><g
     transform="scale(1.09044)"
     id="g4644" /><g
     transform="scale(1.09076)"
     id="g4648" /><g
     transform="scale(1.08266)"
     id="g4652" /><g
     transform="scale(1.08222)"
     id="g4656" /><g
     transform="scale(1.08336)"
     id="g4660" /><g
     transform="scale(1.08475)"
     id="g4664" /><g
     transform="scale(1.08624)"
     id="g4668" /><g
     transform="scale(1.08717)"
     id="g4672" /><g
     transform="scale(1.09318)"
     id="g4676" /><g
     transform="scale(1.09423)"
     id="g4680" /><g
     transform="scale(1.09407)"
     id="g4684" /><g
     transform="scale(1.09688)"
     id="g4688" /><g
     transform="scale(1.0997)"
     id="g4692" /><g
     transform="scale(1.10204)"
     id="g4696" /><g
     transform="scale(1.10442)"
     id="g4700" /><g
     transform="scale(1.10485)"
     id="g4704" /><g
     transform="scale(1.10557)"
     id="g4708" /><g
     transform="scale(1.10628)"
     id="g4712" /><g
     transform="scale(1.09393)"
     id="g4716" /><g
     transform="scale(1.09517)"
     id="g4720" /><g
     transform="scale(1.09537)"
     id="g4724" /><g
     transform="scale(1.09608)"
     id="g4728" /><g
     transform="scale(1.09617)"
     id="g4732" /><g
     transform="scale(1.0984)"
     id="g4736" /><g
     transform="scale(1.09812)"
     id="g4740" /><g
     transform="scale(1.09889)"
     id="g4744" /><g
     transform="scale(1.09921)"
     id="g4748" /><g
     transform="scale(1.09112)"
     id="g4752" /><g
     transform="scale(1.09067)"
     id="g4756" /><g
     transform="scale(1.09182)"
     id="g4760" /><g
     transform="scale(1.0932)"
     id="g4764" /><g
     transform="scale(1.09469)"
     id="g4768" /><g
     transform="scale(1.09563)"
     id="g4772" /><g
     transform="scale(1.10163)"
     id="g4776" /><g
     transform="scale(1.10269)"
     id="g4780" /><g
     transform="scale(1.10253)"
     id="g4784" /><g
     transform="scale(1.10534)"
     id="g4788" /><g
     transform="scale(1.10815)"
     id="g4792" /><g
     transform="scale(1.11048)"
     id="g4796" /><g
     transform="scale(1.11259)"
     id="g4800" /><g
     transform="scale(1.11267)"
     id="g4804" /><g
     transform="scale(1.11501)"
     id="g4808" /><g
     transform="scale(1.11357)"
     id="g4812" /><g
     transform="scale(1.11343)"
     id="g4816" /><g
     transform="scale(1.114)"
     id="g4820" /><g
     transform="scale(1.11409)"
     id="g4824" /><g
     transform="scale(1.11334)"
     id="g4828" /><g
     transform="scale(1.1151)"
     id="g4832" /><g
     transform="scale(1.11439)"
     id="g4836" /><g
     transform="scale(1.11315)"
     id="g4840" /><g
     transform="scale(1.11399)"
     id="g4844" /><g
     transform="scale(1.11448)"
     id="g4848" /><g
     transform="scale(1.11637)"
     id="g4852" /><g
     transform="scale(1.11286)"
     id="g4856" /><g
     transform="scale(1.11349)"
     id="g4860" /><g
     transform="scale(1.11493)"
     id="g4864" /><g
     transform="scale(1.11575)"
     id="g4868" /><g
     transform="scale(1.11409)"
     id="g4872" /><g
     transform="scale(1.08941)"
     id="g4876" /><g
     transform="scale(1.09174)"
     id="g4880" /><g
     transform="scale(1.09399)"
     id="g4884" /><g
     transform="scale(1.08693)"
     id="g4888" /><g
     transform="scale(1.08947)"
     id="g4892" /><g
     transform="scale(1.09034)"
     id="g4896" /><g
     transform="scale(1.08953)"
     id="g4900" /><g
     transform="scale(1.09196)"
     id="g4904" /><g
     transform="scale(1.09236)"
     id="g4908" /><g
     transform="scale(1.09444)"
     id="g4912" /><g
     transform="scale(1.0943)"
     id="g4916" /><g
     transform="scale(1.09741)"
     id="g4920" /><g
     transform="scale(1.09423)"
     id="g4924" /><g
     transform="scale(1.09302)"
     id="g4928" /><g
     transform="scale(1.09474)"
     id="g4932" /><g
     transform="scale(1.09648)"
     id="g4936" /><g
     transform="scale(1.09644)"
     id="g4940" /><g
     transform="scale(1.09714)"
     id="g4944" /><g
     transform="scale(1.09761)"
     id="g4948" /><g
     transform="scale(1.09896)"
     id="g4952" /><g
     transform="scale(1.10637)"
     id="g4956" /><g
     transform="scale(1.10553)"
     id="g4960" /><g
     transform="scale(1.10766)"
     id="g4964" /><g
     transform="scale(1.11098)"
     id="g4968" /><g
     transform="scale(1.11389)"
     id="g4972" /><g
     transform="scale(1.11187)"
     id="g4976" /><g
     transform="scale(1.10532)"
     id="g4980" /><g
     transform="scale(1.10534)"
     id="g4984" /><g
     transform="scale(1.10715)"
     id="g4988" /><g
     transform="scale(1.09307)"
     id="g4992" /><g
     transform="scale(1.0921)"
     id="g4996" /><g
     transform="scale(1.09255)"
     id="g5000" /><g
     transform="scale(1.09263)"
     id="g5004" /><g
     transform="scale(1.09404)"
     id="g5008" /><g
     transform="scale(1.09485)"
     id="g5012" /><g
     transform="scale(1.09621)"
     id="g5016" /><g
     transform="scale(1.09774)"
     id="g5020" /><g
     transform="scale(1.10058)"
     id="g5024" /><g
     transform="scale(1.11513)"
     id="g5028" /><g
     transform="scale(1.07042)"
     id="g5032" /><g
     transform="scale(1.07158)"
     id="g5036" /><g
     transform="scale(1.07073)"
     id="g5040" /><g
     transform="scale(1.07274)"
     id="g5044" /><g
     transform="scale(1.07044)"
     id="g5048" /><g
     transform="scale(1.07164)"
     id="g5052" /><g
     transform="scale(1.07435)"
     id="g5056" /><g
     transform="scale(1.07644)"
     id="g5060" /><g
     transform="scale(1.07593)"
     id="g5064" /><g
     transform="scale(1.07663)"
     id="g5068" /><g
     transform="scale(1.07914)"
     id="g5072" /><g
     transform="scale(1.07433)"
     id="g5076" /><g
     transform="scale(1.07598)"
     id="g5080" /><g
     transform="scale(1.07849)"
     id="g5084" /><g
     transform="scale(1.07899)"
     id="g5088" /><g
     transform="scale(1.07872)"
     id="g5092" /><g
     transform="scale(1.07977)"
     id="g5096" /><g
     transform="scale(1.08285)"
     id="g5100" /><g
     transform="scale(1.08628)"
     id="g5104" /><g
     transform="scale(1.08598)"
     id="g5108" /><g
     transform="scale(1.08422)"
     id="g5112" /><g
     transform="scale(1.08326)"
     id="g5116" /><g
     transform="scale(1.10452)"
     id="g5120" /><g
     transform="scale(1.1068)"
     id="g5124" /><g
     transform="scale(1.10153)"
     id="g5128" /><g
     transform="scale(1.0981)"
     id="g5132" /><g
     transform="scale(1.09385)"
     id="g5136" /><g
     transform="scale(1.10952)"
     id="g5140" /><g
     transform="scale(1.10907)"
     id="g5144" /><g
     transform="scale(1.11032)"
     id="g5148" /><g
     transform="scale(1.11225)"
     id="g5152" /><g
     transform="scale(1.11324)"
     id="g5156" /><g
     transform="scale(1.11428)"
     id="g5160" /><g
     transform="scale(1.11431)"
     id="g5164" /><g
     transform="scale(1.11412)"
     id="g5168" /><g
     transform="scale(1.11411)"
     id="g5172" /><g
     transform="scale(1.1142)"
     id="g5176" /><g
     transform="scale(1.1141)"
     id="g5180" /><g
     transform="scale(1.11411)"
     id="g5184" /><g
     transform="scale(1.11383)"
     id="g5188" /><g
     transform="scale(1.11446)"
     id="g5192" /><g
     transform="scale(1.11436)"
     id="g5196" /><g
     transform="scale(1.11302)"
     id="g5200" /><g
     transform="scale(1.11318)"
     id="g5204" /><g
     transform="scale(1.1176)"
     id="g5208" /><g
     transform="scale(1.11919)"
     id="g5212" /><g
     transform="scale(1.11737)"
     id="g5216" /><g
     transform="scale(1.11681)"
     id="g5220" /><g
     transform="scale(1.11712)"
     id="g5224" /><g
     transform="scale(1.10607)"
     id="g5228" /><g
     transform="scale(1.10795)"
     id="g5232" /><g
     transform="scale(1.10753)"
     id="g5236" /><g
     transform="scale(1.11131)"
     id="g5240" /><g
     transform="scale(1.11361)"
     id="g5244" /><g
     transform="scale(1.11465)"
     id="g5248" /><g
     transform="scale(1.11658)"
     id="g5252" /><g
     transform="scale(1.11704)"
     id="g5256" /><g
     transform="scale(1.1201)"
     id="g5260" /><g
     transform="scale(1.1086)"
     id="g5264" /><g
     transform="scale(1.11046)"
     id="g5268" /><g
     transform="scale(1.11225)"
     id="g5272" /><g
     transform="scale(1.11369)"
     id="g5276" /><g
     transform="scale(1.10494)"
     id="g5280" /><g
     transform="scale(1.10811)"
     id="g5284" /><g
     transform="scale(1.11012)"
     id="g5288" /><g
     transform="scale(1.09764)"
     id="g5292" /><g
     transform="scale(1.10475)"
     id="g5296" /><g
     transform="scale(1.10525)"
     id="g5300" /><g
     transform="scale(1.10673)"
     id="g5304" /><g
     transform="scale(1.10942)"
     id="g5308" /><g
     transform="scale(1.11055)"
     id="g5312" /><g
     transform="scale(1.12969)"
     id="g5316" /><g
     transform="scale(1.09364)"
     id="g5320" /><g
     transform="scale(1.09386)"
     id="g5324" /><g
     transform="scale(1.09722)"
     id="g5328" /><g
     transform="scale(1.08936)"
     id="g5332" /><g
     transform="scale(1.12322)"
     id="g5336" /><g
     transform="scale(1.12679)"
     id="g5340" /><g
     transform="scale(1.13206)"
     id="g5344" /><g
     transform="scale(1.12174)"
     id="g5348" /><g
     transform="scale(1.12516)"
     id="g5352" /><g
     transform="scale(1.12809)"
     id="g5356" /><g
     transform="scale(1.12699)"
     id="g5360" /><g
     transform="scale(1.1324)"
     id="g5364" /><g
     transform="scale(1.11809)"
     id="g5368" /><g
     transform="scale(1.11774)"
     id="g5372" /><g
     transform="scale(1.11693)"
     id="g5376" /><g
     transform="scale(1.13053)"
     id="g5380" /><g
     transform="scale(1.11806)"
     id="g5384" /><g
     transform="scale(1.09726)"
     id="g5388" /><g
     transform="scale(1.13347)"
     id="g5392" /><g
     transform="scale(1.13148)"
     id="g5396" /><g
     transform="scale(1.09232)"
     id="g5400" /><g
     transform="scale(1.09292)"
     id="g5404" /><g
     transform="scale(1.0934)"
     id="g5408" /><g
     transform="scale(1.09271)"
     id="g5412" /><g
     transform="scale(1.09044)"
     id="g5416" /><g
     transform="scale(1.09027)"
     id="g5420" /><g
     transform="scale(1.09229)"
     id="g5424" /><g
     transform="scale(1.09236)"
     id="g5428" /><g
     transform="scale(1.09966)"
     id="g5432" /><g
     transform="scale(1.09777)"
     id="g5436" /><g
     transform="scale(1.09817)"
     id="g5440" /><g
     transform="scale(1.09693)"
     id="g5444" /><g
     transform="scale(1.0996)"
     id="g5448" /><g
     transform="scale(1.10119)"
     id="g5452" /><g
     transform="scale(1.09874)"
     id="g5456" /><g
     transform="scale(1.10499)"
     id="g5460" /><g
     transform="scale(1.10777)"
     id="g5464" /><g
     transform="scale(1.10952)"
     id="g5468" /><g
     transform="scale(1.1131)"
     id="g5472" /><g
     transform="scale(1.14077)"
     id="g5476" /><g
     transform="scale(1.14168)"
     id="g5480" /><g
     transform="scale(1.14021)"
     id="g5484" /><g
     transform="scale(1.14141)"
     id="g5488" /><g
     transform="scale(1.08893)"
     id="g5492" /><g
     transform="scale(1.11672)"
     id="g5496" /><g
     transform="scale(1.11682)"
     id="g5500" /><g
     transform="scale(1.11815)"
     id="g5504" /><g
     transform="scale(1.11693)"
     id="g5508" /><g
     transform="scale(1.12082)"
     id="g5512" /><g
     transform="scale(1.11979)"
     id="g5516" /><g
     transform="scale(1.11252)"
     id="g5520" /><g
     transform="scale(1.11166)"
     id="g5524" /><g
     transform="scale(1.114)"
     id="g5528" /><g
     transform="scale(1.11363)"
     id="g5532" /><g
     transform="scale(1.11471)"
     id="g5536" /><g
     transform="scale(1.09882)"
     id="g5540" /><g
     transform="scale(1.10025)"
     id="g5544" /><g
     transform="scale(1.10003)"
     id="g5548" /><g
     transform="scale(1.10287)"
     id="g5552" /><g
     transform="scale(1.0911)"
     id="g5556" /><g
     transform="scale(1.09288)"
     id="g5560" /><g
     transform="scale(1.09256)"
     id="g5564" /><g
     transform="scale(1.0944)"
     id="g5568" /><g
     transform="scale(1.09884)"
     id="g5572" /><g
     transform="scale(1.10098)"
     id="g5576" /><g
     transform="scale(1.11974)"
     id="g5580" /><g
     transform="scale(1.10231)"
     id="g5584" /><g
     transform="scale(1.10551)"
     id="g5588" /><g
     transform="scale(1.10446)"
     id="g5592" /><g
     transform="scale(1.13325)"
     id="g5596" /><g
     transform="scale(1.13345)"
     id="g5600" /><g
     transform="scale(1.13173)"
     id="g5604" /><g
     transform="scale(1.13304)"
     id="g5608" /><g
     transform="scale(1.13318)"
     id="g5612" /><g
     transform="scale(1.13387)"
     id="g5616" /><g
     transform="scale(1.13546)"
     id="g5620" /><g
     transform="scale(1.13651)"
     id="g5624" /><g
     transform="scale(1.13907)"
     id="g5628" /><g
     transform="scale(1.14009)"
     id="g5632" /><g
     transform="scale(1.15698)"
     id="g5636" /><g
     transform="scale(1.13399)"
     id="g5640" /><g
     transform="scale(1.13494)"
     id="g5644" /><g
     transform="scale(1.13717)"
     id="g5648" /><g
     transform="scale(1.13275)"
     id="g5652" /><g
     transform="scale(1.10112)"
     id="g5656" /><g
     transform="scale(1.10539)"
     id="g5660" /><g
     transform="scale(1.09915)"
     id="g5664" /><g
     transform="scale(1.10215)"
     id="g5668" /><g
     transform="scale(1.12776)"
     id="g5672" /><g
     transform="scale(1.10433)"
     id="g5676" /><g
     transform="scale(1.1039)"
     id="g5680" /><g
     transform="scale(1.10804)"
     id="g5684" /><g
     transform="scale(1.10707)"
     id="g5688" /><g
     transform="scale(1.10047)"
     id="g5692" /><g
     transform="scale(1.10321)"
     id="g5696" /><g
     transform="scale(1.10372)"
     id="g5700" /><g
     transform="scale(1.10466)"
     id="g5704" /><g
     transform="scale(1.10599)"
     id="g5708" /><g
     transform="scale(1.10947)"
     id="g5712" /><g
     transform="scale(1.11096)"
     id="g5716" /><g
     transform="scale(1.11282)"
     id="g5720" /><g
     transform="scale(1.11263)"
     id="g5724" /><g
     transform="scale(1.08495)"
     id="g5728" /><g
     transform="scale(1.08512)"
     id="g5732" /><g
     transform="scale(1.09048)"
     id="g5736" /><g
     transform="scale(1.08417)"
     id="g5740" /><g
     transform="scale(1.08345)"
     id="g5744" /><g
     transform="scale(1.08765)"
     id="g5748" /><g
     transform="scale(1.11439)"
     id="g5752" /><g
     transform="scale(1.11291)"
     id="g5756" /><g
     transform="scale(1.11354)"
     id="g5760" /><g
     transform="scale(1.11314)"
     id="g5764" /><g
     transform="scale(1.11385)"
     id="g5768" /><g
     transform="scale(1.11296)"
     id="g5772" /><g
     transform="scale(1.08395)"
     id="g5776" /><g
     transform="scale(1.08336)"
     id="g5780" /><g
     transform="scale(1.09663)"
     id="g5784" /><g
     transform="scale(1.10639)"
     id="g5788" /><g
     transform="scale(1.09498)"
     id="g5792" /><g
     transform="scale(1.08841)"
     id="g5796" /><g
     transform="scale(1.08682)"
     id="g5800" /><g
     transform="scale(1.08676)"
     id="g5804" /><g
     transform="scale(1.08602)"
     id="g5808" /><g
     transform="scale(1.10029)"
     id="g5812" /><g
     transform="scale(1.11966)"
     id="g5816" /><g
     transform="scale(1.1214)"
     id="g5820" /><g
     transform="scale(1.11997)"
     id="g5824" /><g
     transform="scale(1.12156)"
     id="g5828" /><g
     transform="scale(1.12393)"
     id="g5832" /><g
     transform="scale(1.11766)"
     id="g5836" /><g
     transform="scale(1.11939)"
     id="g5840" /><g
     transform="scale(1.11989)"
     id="g5844" /><g
     transform="scale(1.12257)"
     id="g5848" /><g
     transform="scale(1.12528)"
     id="g5852" /><g
     transform="scale(1.12485)"
     id="g5856" /><g
     transform="scale(1.12588)"
     id="g5860" /><g
     transform="scale(1.12887)"
     id="g5864" /><g
     transform="scale(1.13798)"
     id="g5868" /><g
     transform="scale(1.13782)"
     id="g5872" /><g
     transform="scale(1.14018)"
     id="g5876" /><g
     transform="scale(1.14075)"
     id="g5880" /><g
     transform="scale(1.14229)"
     id="g5884" /><g
     transform="scale(1.14423)"
     id="g5888" /><g
     transform="scale(1.13702)"
     id="g5892" /><g
     transform="scale(1.13326)"
     id="g5896" /><g
     transform="scale(1.13375)"
     id="g5900" /><g
     transform="scale(1.13499)"
     id="g5904" /><g
     transform="scale(1.13407)"
     id="g5908" /><g
     transform="scale(1.12841)"
     id="g5912" /><g
     transform="scale(1.12939)"
     id="g5916" /><g
     transform="scale(1.13045)"
     id="g5920" /><g
     transform="scale(1.13117)"
     id="g5924" /><g
     transform="scale(1.13299)"
     id="g5928" /><g
     transform="scale(1.13443)"
     id="g5932" /><g
     transform="scale(1.13444)"
     id="g5936" /><g
     transform="scale(1.12292)"
     id="g5940" /><g
     transform="scale(1.12045)"
     id="g5944" /><g
     transform="scale(1.12317)"
     id="g5948" /><g
     transform="scale(1.12257)"
     id="g5952" /><g
     transform="scale(1.11682)"
     id="g5956" /><g
     transform="scale(1.11647)"
     id="g5960" /><g
     transform="scale(1.11931)"
     id="g5964" /><g
     transform="scale(1.11911)"
     id="g5968" /><g
     transform="scale(1.12103)"
     id="g5972" /><g
     transform="scale(1.1225)"
     id="g5976" /><g
     transform="scale(1.11506)"
     id="g5980" /><g
     transform="scale(1.12641)"
     id="g5984" /><g
     transform="scale(1.12726)"
     id="g5988" /><g
     transform="scale(1.12954)"
     id="g5992" /><g
     transform="scale(1.13075)"
     id="g5996" /><g
     transform="scale(1.13291)"
     id="g6000" /><g
     transform="scale(1.13248)"
     id="g6004" /><g
     transform="scale(1.13521)"
     id="g6008" /><g
     transform="scale(1.13354)"
     id="g6012" /><g
     transform="scale(1.1164)"
     id="g6016" /><g
     transform="scale(1.11648)"
     id="g6020" /><g
     transform="scale(1.11782)"
     id="g6024" /><g
     transform="scale(1.11769)"
     id="g6028" /><g
     transform="scale(1.11931)"
     id="g6032" /><g
     transform="scale(1.11887)"
     id="g6036" /><g
     transform="scale(1.12094)"
     id="g6040" /><g
     transform="scale(1.12058)"
     id="g6044" /><g
     transform="scale(1.12352)"
     id="g6048" /><g
     transform="scale(1.12488)"
     id="g6052" /><g
     transform="scale(1.12493)"
     id="g6056" /><g
     transform="scale(1.1264)"
     id="g6060" /><g
     transform="scale(1.12662)"
     id="g6064" /><g
     transform="scale(1.1189)"
     id="g6068" /><g
     transform="scale(1.14327)"
     id="g6072" /><g
     transform="scale(1.14174)"
     id="g6076" /><g
     transform="scale(1.14017)"
     id="g6080" /><g
     transform="scale(1.13863)"
     id="g6084" /><g
     transform="scale(1.11255)"
     id="g6088" /><g
     transform="scale(1.11447)"
     id="g6092" /><g
     transform="scale(1.1156)"
     id="g6096" /><g
     transform="scale(1.11725)"
     id="g6100" /><g
     transform="scale(1.11995)"
     id="g6104" /><g
     transform="scale(1.12178)"
     id="g6108" /><g
     transform="scale(1.12311)"
     id="g6112" /><g
     transform="scale(1.11822)"
     id="g6116" /><g
     transform="scale(1.14953)"
     id="g6120" /><g
     transform="scale(1.14802)"
     id="g6124" /><g
     transform="scale(1.14654)"
     id="g6128" /><g
     transform="scale(1.1448)"
     id="g6132" /><g
     transform="scale(1.12923)"
     id="g6136" /></g><g
   id="g6280"
   transform="rotate(180,3549.3438,6092.3032)" />



<g
   id="g1851"><path
     sodipodi:nodetypes="cccccccccccccccccccccccccscsscccsccccccccscccccccccccccccccccccccccccccccccccccccccccccccccccccccccccccccccccccccccccccccccccccccccccccccccccccccccccccccccccccccccccccccccccccccccccccccccccc"
     inkscape:connector-curvature="0"
     id="path20-3"
     d="m 9627.1597,8965.7281 c -80.264,-0.979 -172.01,-15.782 -259.307,-33.927 0,1.545 0,3.099 -0.247,4.673 l -0.233,1.245 c -2.501,16.224 -17.8415,27.2838 -33.9855,24.7138 l -36.0485,-5.7148 c -16.144,-2.569 -27.283,-17.819 -24.668,-34.043 l 0.233,-1.259 c 0.585,-3.624 1.867,-6.932 3.574,-9.947 -59.798,-14.028 -114.51,-27.899 -157.177,-37.514 -268.805,-60.586 -248.579,-321.28 -220.211,-418.931 0,0 165.442,-927.4898 195.206,-1039.0577 16.546,-62.0175 48.621,-135.575 107.871,-186.2109 -10.318,-11.6224 -21.401,-25.9197 -29.971,-43.5937 -12.928,-26.6637 -19.387,-61.3112 -7.251,-99.375 7.666,-24.0451 31.118,-37.942 53.789,-39.7998 2.835,-0.2325 5.688,-0.345 8.57,-0.3518 20.164,-0.045 41.471,5.2215 63.75,12.7295 37.081,12.4974 76.633,32.0206 110.493,50.2881 10.366,-58.4799 31.918,-107.8039 34.116,-111.0498 0.759,-1.1595 16.284,-1.6669 37.881,-1.831 l -0.879,-903.5596 v -0.1463 c -15.145,-6.1422 -24.223,-13.7173 -24.287,-21.9579 l -7.061,-77.8125 c -381.463,-23.0677 -671.997,-141.5721 -671.997,-284.3848 0,-3.6878 0.263,-7.3464 0.645,-11.001 v -181.0547 c 0,-159.341 359.514,-288.5156 805.767,-288.5156 446.0193,0 807.7303,129.1746 807.7303,288.5156 0,0 1.406,0.9237 1.406,185.5665 h -0.135 c 0.135,2.1597 0.233,4.3179 0.233,6.4892 0,143.8723 -294.824,263.1049 -680.5523,284.9121 l -10.664,77.2852 h -0.158 c -0.07,8.1237 -8.885,15.5983 -23.642,21.6943 0.01,0.2033 0.08,0.3968 0.08,0.6008 l 0.981,1006.9921 c 4.07,35.4305 5.749,72.9118 7.397,106.3331 129.506,22.9729 252.704,51.1657 323.8343,71.7187 123.124,35.5887 169.154,185.6297 149.971,310.6495 -19.184,125.0197 -177.876,1063.6523 -177.876,1063.6523 -17.3243,114.4511 -57.0893,264.2591 -243.9273,304.2771 -26.359,5.652 -55.756,8.332 -87.158,8.702 -5.299,0.06 -10.66,0.07 -16.069,0 z m 263.276,-302.4471 c 35.605,1.2579 36.167,-23.8038 36.167,-23.8038 l 6.401,-54.5214 c 0,0 -10.223,3.1552 -31.787,0.1905 l -341.191,-47.1973 c -31.335,-4.324 -59.087,9.6409 -62.007,31.2158 -3.033,21.575 19.891,42.5657 51.225,46.8896 z m -593.438,-87.9786 c 17.719,-0.6232 33.345,-14.0143 36.563,-32.7831 3.793,-21.4389 -9.878,-41.7924 -30.454,-45.4249 l -225.088,-39.624 -13.667,77.6806 224.956,39.6241 c 2.587,0.4523 5.159,0.6165 7.69,0.5273 z m 619.219,-50.083 c 29.357,-0.9206 30.542,-22.9248 30.542,-22.9248 l 7.969,-54.3164 c 0,0 -10.322,2.8815 -31.861,-0.6735 l -339.784,-56.4111 c -31.073,-5.1714 -59.34,8.0492 -62.93,29.5313 -3.477,21.4821 18.839,43.0952 50.025,48.2665 l 339.784,56.4258 c 2.216,0.1403 4.298,0.1628 6.255,0.1028 z m -594.492,-93.4717 c 17.62,-0.6195 33.248,-14.0188 36.563,-32.7832 3.673,-21.445 -9.88,-41.7824 -30.66,-45.4101 l -225.014,-39.624 -13.653,77.6514 225.132,39.624 c 2.569,0.4552 5.115,0.6307 7.632,0.5422 z m 624.39,-42.8613 c 29.4683,-0.9148 30.4373,-22.9102 30.4403,-22.9102 l 8.07,-54.3164 c 0,0 -10.41,2.8871 -31.8013,-0.6735 l -339.917,-56.4111 c -31.135,-5.1854 -59.355,8.0506 -62.827,29.5313 -3.584,21.4806 18.816,43.0889 49.951,48.2519 l 339.8,56.4258 c 2.226,0.1402 4.319,0.1627 6.284,0.1027 z m -600.41,-100.7519 c 17.674,-0.621 33.281,-14.0129 36.592,-32.7833 3.783,-21.4517 -9.861,-41.7754 -30.498,-45.4102 l -225.074,-39.624 -13.638,77.6515 224.942,39.6386 c 2.58,0.4522 5.151,0.6157 7.676,0.5272 z m 643.4033,-45.586 c 6.776,-0.2977 10.181,-1.4062 10.181,-1.4062 l 12.627,-64.2188 c 0,0 3.138,-4.016 -30.967,-13.7109 l -339.3753,-59.751 c -31.087,-5.4793 -59.377,7.4686 -63.179,28.916 -3.69,21.4475 18.44,43.2819 49.527,48.75 l 339.2723,59.7363 c 5.339,0.9424 10.009,1.4389 14.018,1.6407 3.008,0.1515 5.637,0.1417 7.896,0.045 z m -615.0443,-89.8242 c 17.647,-0.6278 33.213,-14.0407 36.519,-32.8125 3.892,-21.4421 -9.833,-41.7665 -30.44,-45.3956 l -225.073,-39.6386 -13.623,77.6807 224.956,39.624 c 2.576,0.4537 5.14,0.6322 7.661,0.5422 z m 639.0973,-37.749 10.62,-53.8623 c 0,0 7.156,-24.0377 -27.144,-33.7354 l -339.1993,-59.751 c -31.171,-5.4745 -59.438,7.4537 -63.237,28.916 -3.687,21.4401 18.437,43.2643 49.497,48.75 l 339.3013,59.7363 c 21.34,3.7652 30.162,9.9464 30.162,9.9464 z m -614.0193,-104.8389 c 17.625,-0.6293 33.191,-14.0311 36.592,-32.7979 3.659,-21.4477 -9.937,-41.7745 -30.63,-45.4101 l -225,-39.6241 -13.726,77.6514 225.117,39.6387 c 2.573,0.453 5.13,0.6322 7.647,0.5422 z m 640.9573,-36.5479 10.606,-53.8476 c 0,0 7.135,-24.0443 -27.115,-33.75 l -339.2433,-59.751 c -31.125,-5.4776 -59.467,7.4777 -63.149,28.9307 -3.793,21.453 18.298,43.2723 49.423,48.75 l 339.2583,59.751 c 21.42,3.7707 30.22,9.9169 30.22,9.9169 z m -615.9823,-99.038 c 17.602,-0.6158 33.152,-14.0116 36.549,-32.7833 3.653,-21.4533 -9.936,-41.7794 -30.601,-45.4101 l -225.044,-39.6387 -13.696,77.6661 225.146,39.624 c 2.569,0.4552 5.132,0.63 7.646,0.5422 z m 634.4253,-35.7862 10.59,-53.8623 c 0,0 7.13,-24.0394 -27.084,-33.7354 l -339.3613,-59.7363 c -31.094,-5.472 -59.399,7.4625 -63.076,28.9161 -3.79,21.4535 18.286,43.2668 49.38,48.75 l 339.3453,59.7363 c 21.398,3.778 30.206,9.9316 30.206,9.9316 z m -608.8923,-109.2041 c 17.674,-0.627 33.285,-14.0174 36.577,-32.7832 3.649,-21.4466 -9.919,-41.7844 -30.556,-45.4102 l -225.074,-39.6386 -13.681,77.666 225.073,39.6387 c 2.579,0.4522 5.136,0.6165 7.661,0.5272 z m 640.1223,-25.5469 10.679,-53.8623 c 0,0 7.012,-24.0374 -27.144,-33.75 l -339.3163,-59.7509 c -31.04,-5.4626 -59.411,7.4806 -63.193,28.9306 -3.672,21.45 18.456,43.2651 49.497,48.75 l 339.3303,59.7363 c 21.361,3.7716 30.147,9.9463 30.147,9.9463 z m -614.9853,-107.7099 c 17.65,-0.6232 33.231,-14.0229 36.518,-32.7832 3.757,-21.4518 -9.907,-41.7926 -30.629,-45.4249 l -225,-39.624 -13.653,77.6514 225.102,39.6387 c 2.577,0.4545 5.14,0.6315 7.662,0.5422 z m -238.814,-390.8936 c 41.816,-25.1013 94.289,-39.6411 160.064,-35.918 0,-5.0788 0.09,-10.1779 0.337,-15.2783 -36.076,-19.9365 -80.347,-42.6476 -118.579,-55.5322 -22.692,-7.6476 -43.143,-11.3689 -55.678,-10.3418 -12.536,1.0273 -14.855,2.2735 -17.652,11.0449 -8.789,27.569 -4.401,49.1724 5.054,68.6719 6.911,14.255 16.849,26.8208 26.455,37.3535 z"
     style="display:inline;fill:#ffffff;fill-opacity:1;fill-rule:nonzero;stroke:none;stroke-width:1.16759002" /><path
     style="fill:#ffffff;fill-opacity:1;stroke:none;stroke-width:7.5px;stroke-linecap:butt;stroke-linejoin:miter;stroke-opacity:1"
     d="m 3817.9078,6708.5201 -173.4635,-196.288 95.007,-11.2606 -104.8862,-160.0361 209.2615,174.514 -106.703,27.1774 z"
     id="path11157"
     inkscape:connector-curvature="0"
     transform="rotate(-180,3549.3439,6092.3032)" /><path
     style="fill:#ffffff;fill-opacity:1;stroke:none;stroke-width:7.5px;stroke-linecap:butt;stroke-linejoin:miter;stroke-opacity:1"
     d="m 3567.7943,5888.5978 -37.8763,-186.707 63.9339,27.4555 -7.8664,-138.9369 68.3407,186.0103 -77.0878,-21.6835 z"
     id="path11157-6"
     inkscape:connector-curvature="0"
     transform="rotate(-180,3549.3439,6092.3032)" /><path
     style="fill:#ffffff;fill-opacity:1;stroke:none;stroke-width:7.5px;stroke-linecap:butt;stroke-linejoin:miter;stroke-opacity:1"
     d="m 3396.0803,6529.9421 45.4139,-135.4733 31.2303,41.8081 46.9921,-93.192 -25.3654,146.4448 -41.9385,-42.9917 z"
     id="path11157-6-7"
     inkscape:connector-curvature="0"
     transform="rotate(-180,3549.3439,6092.3032)" /><g
     aria-label="404"
     transform="scale(1,-1)"
     style="font-style:normal;font-variant:normal;font-weight:normal;font-stretch:normal;font-size:180px;line-height:1.25;font-family:'Fakt Pro';-inkscape-font-specification:'Fakt Pro';font-variant-ligatures:normal;font-variant-caps:normal;font-variant-numeric:normal;font-feature-settings:normal;text-align:center;letter-spacing:7.5px;word-spacing:0px;writing-mode:lr-tb;text-anchor:middle;fill:#ffffff;fill-opacity:1;stroke:none;stroke-width:7.5"
     id="text6164"><path
       d="m 3205.4445,-8020.139 v -54.4 l 548.8,-742.4 h 62.4 v 731.2 h 176 v 65.6 h -176 v 307.2 h -76.8 v -307.2 z m 80,-65.6 h 454.4 v -609.6 z"
       style="font-style:normal;font-variant:normal;font-weight:300;font-stretch:normal;font-size:1600px;font-family:'Fakt Pro';-inkscape-font-specification:'Fakt Pro Light';text-align:start;text-anchor:start;fill:#ffffff;fill-opacity:1;stroke-width:7.5"
       id="path1855" /><path
       d="m 4519.1195,-7696.939 q -96,0 -168,-41.6 -70.4,-43.2 -116.8,-120 -44.8,-76.8 -67.2,-179.2 -22.4,-102.4 -22.4,-225.6 0,-123.2 22.4,-225.6 22.4,-102.4 67.2,-179.2 46.4,-76.8 116.8,-118.4 72,-43.2 168,-43.2 96,0 166.4,43.2 72,41.6 116.8,118.4 46.4,76.8 68.8,179.2 22.4,102.4 22.4,225.6 0,123.2 -22.4,225.6 -22.4,102.4 -68.8,179.2 -44.8,76.8 -116.8,120 -70.4,41.6 -166.4,41.6 z m 0,-70.4 q 73.6,0 129.6,-35.2 56,-35.2 92.8,-100.8 36.8,-65.6 54.4,-156.8 17.6,-91.2 17.6,-203.2 0,-112 -17.6,-203.2 -17.6,-91.2 -54.4,-156.8 -36.8,-65.6 -92.8,-100.8 -56,-35.2 -129.6,-35.2 -75.2,0 -131.2,35.2 -56,35.2 -92.8,100.8 -35.2,65.6 -52.8,156.8 -17.6,91.2 -17.6,203.2 0,112 17.6,203.2 17.6,91.2 54.4,156.8 36.8,65.6 92.8,100.8 56,35.2 129.6,35.2 z"
       style="font-style:normal;font-variant:normal;font-weight:300;font-stretch:normal;font-size:1600px;font-family:'Fakt Pro';-inkscape-font-specification:'Fakt Pro Light';text-align:start;text-anchor:start;fill:#ffffff;fill-opacity:1;stroke-width:7.5"
       id="path1857" /><path
       d="m 5039.1945,-8020.139 v -54.4 l 548.8,-742.4 h 62.4 v 731.2 h 176 v 65.6 h -176 v 307.2 h -76.8 v -307.2 z m 80,-65.6 h 454.4 v -609.6 z"
       style="font-style:normal;font-variant:normal;font-weight:300;font-stretch:normal;font-size:1600px;font-family:'Fakt Pro';-inkscape-font-specification:'Fakt Pro Light';text-align:start;text-anchor:start;fill:#ffffff;fill-opacity:1;stroke-width:7.5"
       id="path1859" /></g><g
     aria-label="Oops!
We can't find that."
     transform="scale(1,-1)"
     style="font-style:normal;font-variant:normal;font-weight:normal;font-stretch:normal;font-size:180px;line-height:1.25;font-family:'Fakt Pro';-inkscape-font-specification:'Fakt Pro';font-variant-ligatures:normal;font-variant-caps:normal;font-variant-numeric:normal;font-feature-settings:normal;text-align:end;letter-spacing:7.5px;word-spacing:0px;writing-mode:lr-tb;text-anchor:end;fill:#ffffff;fill-opacity:1;stroke:none;stroke-width:7.5"
     id="text6164-1"><path
       d="m 6587.2344,-7937.3973 q 0,-48 14.72,-89.6 15.36,-41.6 42.88,-72.32 28.16,-30.72 65.92,-47.36 38.4,-17.28 83.84,-17.28 44.16,0 82.56,17.28 38.4,16.64 65.92,47.36 28.16,30.72 43.52,72.32 15.36,41.6 15.36,89.6 0,48 -15.36,89.6 -15.36,41.6 -43.52,72.32 -27.52,30.72 -65.92,48 -38.4,16.64 -82.56,16.64 -45.44,0 -83.84,-16.64 -37.76,-17.28 -65.92,-48 -27.52,-30.72 -42.88,-72.32 -14.72,-41.6 -14.72,-89.6 z m 33.28,0 q 0,41.6 12.16,78.08 12.8,35.84 35.84,62.72 23.68,26.88 55.68,41.6 32,14.72 70.4,14.72 37.76,0 69.76,-14.72 32,-14.72 55.04,-41.6 23.68,-26.88 36.48,-62.72 12.8,-36.48 12.8,-78.08 0,-41.6 -12.8,-77.44 -12.8,-36.48 -36.48,-63.36 -23.04,-26.88 -55.04,-41.6 -32,-14.72 -69.76,-14.72 -38.4,0 -70.4,14.72 -32,14.72 -55.68,41.6 -23.04,26.88 -35.84,63.36 -12.16,35.84 -12.16,77.44 z"
       style="font-style:normal;font-variant:normal;font-weight:300;font-stretch:normal;font-size:640px;font-family:'Fakt Pro';-inkscape-font-specification:'Fakt Pro Light';text-align:end;text-anchor:end;fill:#ffffff;fill-opacity:1;stroke-width:7.5"
       id="path1862" /><path
       d="m 7070.9244,-7873.3973 q 0,-35.84 10.88,-65.92 10.88,-30.08 30.08,-51.84 19.84,-21.76 46.08,-33.28 26.24,-11.52 56.32,-11.52 32,0 58.24,11.52 26.24,11.52 45.44,33.28 19.2,21.12 29.44,51.2 10.24,30.08 10.24,66.56 0,35.84 -10.88,65.92 -10.88,30.08 -30.72,51.84 -19.2,21.76 -45.44,33.28 -26.24,11.52 -56.32,11.52 -32,0 -58.24,-11.52 -26.24,-11.52 -45.44,-32.64 -19.2,-21.76 -29.44,-51.84 -10.24,-30.08 -10.24,-66.56 z m 32,0 q 0,30.08 7.68,55.04 8.32,24.96 23.04,43.52 15.36,17.92 35.84,27.52 20.48,9.6 44.8,9.6 23.04,0 43.52,-9.6 20.48,-10.24 35.84,-28.16 15.36,-17.92 23.68,-42.88 8.32,-25.6 8.32,-55.04 0,-30.08 -8.32,-55.04 -8.32,-25.6 -23.04,-43.52 -14.72,-17.92 -35.2,-27.52 -20.48,-9.6 -44.8,-9.6 -23.04,0 -43.52,10.24 -20.48,9.6 -35.84,27.52 -15.36,17.92 -23.68,43.52 -8.32,24.96 -8.32,54.4 z"
       style="font-style:normal;font-variant:normal;font-weight:300;font-stretch:normal;font-size:640px;font-family:'Fakt Pro';-inkscape-font-specification:'Fakt Pro Light';text-align:end;text-anchor:end;fill:#ffffff;fill-opacity:1;stroke-width:7.5"
       id="path1864" /><path
       d="m 7478.4644,-7657.0773 v 80.64 h -30.72 v -453.12 h 28.8 v 67.2 h 1.28 q 7.68,-17.28 18.56,-30.72 11.52,-14.08 26.24,-23.68 15.36,-9.6 32.64,-14.08 17.92,-5.12 37.76,-5.12 28.8,0 53.12,10.88 24.96,10.88 42.88,32 18.56,21.12 28.8,51.2 10.24,29.44 10.24,65.92 0,36.48 -10.88,67.2 -10.24,30.08 -29.44,52.48 -18.56,21.76 -43.52,33.92 -24.96,11.52 -53.12,11.52 -19.84,0 -37.12,-5.12 -17.28,-4.48 -32,-13.44 -14.72,-9.6 -25.6,-23.04 -10.88,-14.08 -18.56,-32 h -1.28 q 0.64,7.04 0.64,24.96 0.64,17.92 0.64,39.68 0.64,21.12 0.64,39.04 0,18.56 0,23.68 z m 217.6,-218.88 q 0,-30.72 -8.32,-55.68 -8.32,-24.96 -23.04,-42.24 -14.72,-17.28 -34.56,-26.24 -19.84,-8.96 -42.88,-8.96 -22.4,0 -42.24,8.96 -19.2,8.96 -33.92,25.6 -14.72,16.64 -23.68,40.96 -8.32,24.32 -8.96,53.76 v 6.4 q 0,30.72 8.32,56.32 8.32,24.96 23.04,42.88 14.72,17.92 34.56,27.52 19.84,8.96 42.88,8.96 23.04,0 42.88,-9.6 19.84,-9.6 34.56,-28.16 14.72,-18.56 23.04,-44.16 8.32,-25.6 8.32,-56.32 z"
       style="font-style:normal;font-variant:normal;font-weight:300;font-stretch:normal;font-size:640px;font-family:'Fakt Pro';-inkscape-font-specification:'Fakt Pro Light';text-align:end;text-anchor:end;fill:#ffffff;fill-opacity:1;stroke-width:7.5"
       id="path1866" /><path
       d="m 7793.9744,-7804.2773 h 28.8 q 0,17.92 7.68,31.36 7.68,12.8 20.48,21.76 12.8,8.32 29.44,12.16 16.64,3.84 34.56,3.84 20.48,0 37.12,-3.84 17.28,-4.48 29.44,-12.8 12.16,-8.32 18.56,-21.12 7.04,-12.8 7.04,-28.8 0,-12.8 -3.84,-22.4 -3.84,-9.6 -11.52,-16 -7.68,-7.04 -19.2,-10.88 -11.52,-4.48 -28.16,-7.04 l -58.88,-10.24 q -18.56,-3.2 -33.28,-8.32 -14.72,-5.12 -26.88,-13.44 -11.52,-8.96 -18.56,-22.4 -6.4,-14.08 -6.4,-33.92 0,-20.48 8.32,-37.12 8.96,-17.28 24.96,-28.8 16,-11.52 37.12,-17.28 21.12,-6.4 45.44,-6.4 23.04,0 43.52,5.76 21.12,5.12 37.12,16 16,10.88 24.96,28.16 8.96,16.64 8.96,39.68 h -28.8 q 0,-16 -7.04,-28.16 -6.4,-12.8 -18.56,-21.12 -11.52,-8.32 -26.88,-12.16 -15.36,-3.84 -33.28,-3.84 -18.56,0 -34.56,4.48 -15.36,3.84 -26.88,12.16 -11.52,7.68 -17.92,19.84 -6.4,11.52 -6.4,26.24 0,12.8 4.48,22.4 4.48,8.96 12.8,15.36 8.32,5.76 19.84,10.24 11.52,3.84 26.88,6.4 l 58.88,10.24 q 20.48,3.84 35.84,9.6 15.36,5.12 26.24,14.72 10.88,8.96 16.64,23.04 5.76,13.44 5.76,32.64 0,22.4 -9.6,40.32 -8.96,17.92 -25.6,29.44 -16.64,11.52 -39.04,17.28 -22.4,6.4 -48.64,6.4 -25.6,0 -48,-5.76 -21.76,-5.76 -38.4,-17.28 -16.64,-11.52 -25.6,-28.8 -8.96,-17.92 -8.96,-41.6 z"
       style="font-style:normal;font-variant:normal;font-weight:300;font-stretch:normal;font-size:640px;font-family:'Fakt Pro';-inkscape-font-specification:'Fakt Pro Light';text-align:end;text-anchor:end;fill:#ffffff;fill-opacity:1;stroke-width:7.5"
       id="path1868" /><path
       d="m 8141.1244,-7836.2773 -7.68,-208.64 v -112.64 h 34.56 v 112.64 l -8.32,208.64 z m -7.68,119.04 v -61.44 h 34.56 v 61.44 z"
       style="font-style:normal;font-variant:normal;font-weight:300;font-stretch:normal;font-size:640px;font-family:'Fakt Pro';-inkscape-font-specification:'Fakt Pro Light';text-align:end;text-anchor:end;fill:#ffffff;fill-opacity:1;stroke-width:7.5"
       id="path1870" /><path
       d="m 3325.7644,-6917.2373 -120.32,-440.32 h 32.64 l 107.52,406.4 h 1.28 l 120.32,-406.4 h 37.76 l 119.68,406.4 h 1.28 l 105.6,-406.4 h 32 l -119.04,440.32 h -39.68 l -119.04,-402.56 h -1.28 l -119.04,402.56 z"
       style="font-style:normal;font-variant:normal;font-weight:300;font-stretch:normal;font-size:640px;font-family:'Fakt Pro';-inkscape-font-specification:'Fakt Pro Light';text-align:end;text-anchor:end;fill:#ffffff;fill-opacity:1;stroke-width:7.5"
       id="path1872" /><path
       d="m 3792.1744,-7073.3973 q 0,-35.2 10.24,-65.28 10.88,-30.08 30.08,-51.84 19.2,-21.76 44.16,-33.28 25.6,-12.16 55.04,-12.16 28.16,0 51.84,10.24 24.32,9.6 41.6,29.44 17.92,19.2 27.52,46.72 9.6,27.52 9.6,62.08 v 13.44 h -238.08 v 0.64 q 0,30.08 7.68,55.04 7.68,24.96 21.76,43.52 14.08,17.92 34.56,27.52 20.48,9.6 46.08,9.6 19.2,0 35.2,-5.12 16.64,-5.76 28.8,-15.36 12.16,-10.24 19.84,-23.68 8.32,-14.08 10.88,-30.08 h 30.08 q -2.56,21.76 -13.44,40.32 -10.24,18.56 -26.88,32.64 -16.64,13.44 -38.4,21.12 -21.76,7.04 -46.08,7.04 -33.28,0 -60.16,-11.52 -26.24,-11.52 -44.8,-32.64 -17.92,-21.76 -27.52,-51.84 -9.6,-30.08 -9.6,-66.56 z m 139.52,-135.68 q -20.48,0 -38.4,7.68 -17.92,7.68 -32,22.4 -14.08,14.72 -23.68,35.84 -8.96,20.48 -12.16,45.44 h 205.44 q -1.28,-26.88 -8.96,-47.36 -7.68,-21.12 -21.12,-35.2 -12.8,-14.72 -30.72,-21.76 -17.28,-7.04 -38.4,-7.04 z"
       style="font-style:normal;font-variant:normal;font-weight:300;font-stretch:normal;font-size:640px;font-family:'Fakt Pro';-inkscape-font-specification:'Fakt Pro Light';text-align:end;text-anchor:end;fill:#ffffff;fill-opacity:1;stroke-width:7.5"
       id="path1874" /><path
       d="m 4272.1744,-7073.3973 q 0,-35.84 10.24,-65.92 10.88,-30.08 30.08,-51.84 19.84,-21.76 45.44,-33.28 25.6,-11.52 55.04,-11.52 25.6,0 46.72,7.68 21.76,7.68 37.76,22.4 16.64,14.08 27.52,33.92 10.88,19.84 14.72,43.52 h -30.72 q -3.84,-18.56 -12.16,-33.28 -8.32,-14.72 -20.48,-24.96 -12.16,-10.88 -28.16,-16.64 -16,-5.76 -35.2,-5.76 -22.4,0 -42.24,10.24 -19.84,9.6 -35.2,27.52 -14.72,17.92 -23.04,43.52 -8.32,24.96 -8.32,54.4 0,30.08 7.68,55.04 8.32,24.96 23.04,43.52 14.72,17.92 34.56,27.52 19.84,9.6 43.52,9.6 19.2,0 35.2,-5.76 16,-5.76 28.16,-16 12.16,-10.88 20.48,-25.6 8.32,-14.72 12.16,-33.28 h 30.72 q -3.84,23.68 -14.72,43.52 -10.88,19.84 -27.52,34.56 -16,14.08 -37.76,21.76 -21.12,7.68 -46.72,7.68 -31.36,0 -57.6,-11.52 -26.24,-11.52 -44.8,-32.64 -18.56,-21.76 -28.8,-51.84 -9.6,-30.08 -9.6,-66.56 z"
       style="font-style:normal;font-variant:normal;font-weight:300;font-stretch:normal;font-size:640px;font-family:'Fakt Pro';-inkscape-font-specification:'Fakt Pro Light';text-align:end;text-anchor:end;fill:#ffffff;fill-opacity:1;stroke-width:7.5"
       id="path1876" /><path
       d="m 4611.0144,-6995.3173 q 0,-19.2 5.76,-33.92 5.76,-14.72 17.28,-25.6 12.16,-11.52 30.08,-19.2 17.92,-7.68 42.24,-11.52 l 74.24,-12.16 q 12.16,-1.92 19.84,-3.84 7.68,-1.92 12.8,-5.12 5.12,-3.2 7.68,-7.68 2.56,-5.12 2.56,-11.52 -0.64,-21.12 -6.4,-36.48 -5.76,-16 -16.64,-26.24 -10.24,-10.88 -25.6,-16 -14.72,-5.76 -33.92,-5.76 -19.2,0 -35.2,5.12 -15.36,5.12 -26.88,15.36 -11.52,9.6 -18.56,24.32 -7.04,14.72 -8.32,33.28 h -29.44 q 1.28,-23.68 10.24,-42.88 8.96,-19.2 24.32,-32.64 16,-14.08 37.12,-21.12 21.12,-7.04 46.72,-7.04 26.88,0 48,7.68 21.12,7.04 35.2,21.76 14.72,14.08 22.4,35.2 7.68,21.12 7.68,48 v 206.08 h -28.8 v -59.52 h -1.92 q -6.4,15.36 -17.28,27.52 -10.88,12.16 -25.6,21.12 -14.08,8.32 -32,12.8 -17.28,4.48 -37.76,4.48 -23.68,0 -42.24,-6.4 -18.56,-5.76 -31.36,-16.64 -12.8,-11.52 -19.84,-26.88 -6.4,-15.36 -6.4,-34.56 z m 212.48,-55.04 v -41.6 q -2.56,3.2 -6.4,6.4 -3.84,2.56 -8.96,5.12 -5.12,1.92 -10.88,3.2 -5.76,1.28 -12.8,2.56 l -72.32,11.52 q -17.92,2.56 -31.36,8.32 -13.44,5.76 -22.4,14.08 -8.32,7.68 -12.8,18.56 -3.84,10.88 -3.84,24.32 0,13.44 4.48,24.96 5.12,11.52 14.08,19.84 9.6,7.68 23.04,12.16 14.08,4.48 32,4.48 21.76,0 40.96,-6.4 19.2,-7.04 34.56,-20.48 15.36,-14.08 23.68,-35.84 8.96,-21.76 8.96,-51.2 z"
       style="font-style:normal;font-variant:normal;font-weight:300;font-stretch:normal;font-size:640px;font-family:'Fakt Pro';-inkscape-font-specification:'Fakt Pro Light';text-align:end;text-anchor:end;fill:#ffffff;fill-opacity:1;stroke-width:7.5"
       id="path1878" /><path
       d="m 4965.2444,-6917.2373 v -312.32 h 28.8 v 60.8 h 1.92 q 7.04,-16.64 17.92,-29.44 10.88,-12.8 24.96,-21.12 14.72,-8.32 30.72,-12.16 16.64,-4.48 33.92,-4.48 24.32,0 44.16,7.04 19.84,7.04 35.2,22.4 15.36,14.72 23.68,39.04 8.32,23.68 8.32,56.96 v 193.28 h -30.72 v -189.44 q 0,-27.52 -6.4,-46.72 -5.76,-19.84 -17.28,-32 -11.52,-12.16 -27.52,-17.92 -15.36,-5.76 -34.56,-5.76 -21.12,0 -39.68,8.32 -18.56,7.68 -32.64,23.68 -14.08,16 -22.4,40.32 -7.68,24.32 -7.68,55.04 v 164.48 z"
       style="font-style:normal;font-variant:normal;font-weight:300;font-stretch:normal;font-size:640px;font-family:'Fakt Pro';-inkscape-font-specification:'Fakt Pro Light';text-align:end;text-anchor:end;fill:#ffffff;fill-opacity:1;stroke-width:7.5"
       id="path1880" /><path
       d="m 5326.4944,-7196.2773 -5.12,-103.68 v -57.6 h 30.72 v 57.6 l -5.76,103.68 z"
       style="font-style:normal;font-variant:normal;font-weight:300;font-stretch:normal;font-size:640px;font-family:'Fakt Pro';-inkscape-font-specification:'Fakt Pro Light';text-align:end;text-anchor:end;fill:#ffffff;fill-opacity:1;stroke-width:7.5"
       id="path1882" /><path
       d="m 5469.1744,-7004.2773 v -200.32 h -64 v -24.96 h 64 v -94.72 h 30.72 v 94.72 h 88.96 v 24.96 h -88.96 v 199.04 q 0,17.28 3.2,29.44 3.84,11.52 10.24,19.2 7.04,7.04 17.28,10.24 10.88,3.2 25.6,3.2 h 32.64 v 26.24 h -36.48 q -21.12,0 -36.48,-5.12 -15.36,-5.12 -26.24,-15.36 -10.24,-10.88 -15.36,-26.88 -5.12,-16.64 -5.12,-39.68 z"
       style="font-style:normal;font-variant:normal;font-weight:300;font-stretch:normal;font-size:640px;font-family:'Fakt Pro';-inkscape-font-specification:'Fakt Pro Light';text-align:end;text-anchor:end;fill:#ffffff;fill-opacity:1;stroke-width:7.5"
       id="path1884" /><path
       d="m 5997.1544,-6917.2373 v -287.36 h -144.64 v 287.36 h -30.72 v -287.36 h -65.28 v -24.96 h 65.28 v -58.88 q 0,-24.96 5.76,-42.88 6.4,-18.56 17.92,-30.72 12.16,-12.16 29.44,-17.92 17.28,-5.76 40.32,-5.76 h 28.16 v 26.24 h -25.6 q -16.64,0 -29.44,4.48 -12.16,3.84 -20.48,12.8 -7.68,8.96 -11.52,23.04 -3.84,13.44 -3.84,32 v 57.6 h 175.36 v 312.32 z m -1.28,-409.6 v -58.88 h 33.28 v 58.88 z"
       style="font-style:normal;font-variant:normal;font-weight:300;font-stretch:normal;font-size:640px;font-family:'Fakt Pro';-inkscape-font-specification:'Fakt Pro Light';text-align:end;text-anchor:end;fill:#ffffff;fill-opacity:1;stroke-width:7.5"
       id="path1886" /><path
       d="m 6150.2444,-6917.2373 v -312.32 h 28.8 v 60.8 h 1.92 q 7.04,-16.64 17.92,-29.44 10.88,-12.8 24.96,-21.12 14.72,-8.32 30.72,-12.16 16.64,-4.48 33.92,-4.48 24.32,0 44.16,7.04 19.84,7.04 35.2,22.4 15.36,14.72 23.68,39.04 8.32,23.68 8.32,56.96 v 193.28 h -30.72 v -189.44 q 0,-27.52 -6.4,-46.72 -5.76,-19.84 -17.28,-32 -11.52,-12.16 -27.52,-17.92 -15.36,-5.76 -34.56,-5.76 -21.12,0 -39.68,8.32 -18.56,7.68 -32.64,23.68 -14.08,16 -22.4,40.32 -7.68,24.32 -7.68,55.04 v 164.48 z"
       style="font-style:normal;font-variant:normal;font-weight:300;font-stretch:normal;font-size:640px;font-family:'Fakt Pro';-inkscape-font-specification:'Fakt Pro Light';text-align:end;text-anchor:end;fill:#ffffff;fill-opacity:1;stroke-width:7.5"
       id="path1888" /><path
       d="m 6487.1744,-7070.8373 q 0,-36.48 10.24,-66.56 10.88,-30.72 29.44,-52.48 19.2,-22.4 44.16,-33.92 24.96,-12.16 53.76,-12.16 19.2,0 36.48,5.12 17.28,4.48 31.36,14.08 14.72,8.96 25.6,23.04 11.52,13.44 18.56,31.36 h 1.92 q -0.64,-7.04 -1.28,-24.32 0,-17.28 -0.64,-37.12 0,-20.48 0,-37.12 0,-17.28 0,-22.4 v -102.4 h 30.72 v 468.48 h -28.8 v -67.84 h -1.92 q -7.04,17.92 -18.56,32 -11.52,13.44 -26.88,23.04 -14.72,9.6 -32.64,14.08 -17.28,5.12 -36.48,5.12 -28.8,0 -53.76,-10.88 -24.32,-10.88 -42.88,-32 -17.92,-21.12 -28.16,-50.56 -10.24,-30.08 -10.24,-66.56 z m 32,0 q 0,30.72 8.32,55.68 8.32,24.96 23.04,42.24 14.72,17.28 34.56,26.24 19.84,8.96 42.24,8.96 22.4,0 41.6,-8.96 19.84,-8.96 34.56,-25.6 15.36,-16.64 23.68,-40.96 8.96,-24.32 9.6,-53.76 v -12.8 q -0.64,-29.44 -9.6,-53.76 -8.32,-24.32 -23.04,-40.96 -14.72,-16.64 -34.56,-25.6 -19.2,-8.96 -41.6,-8.96 -23.04,0 -42.88,9.6 -19.84,9.6 -34.56,28.16 -14.72,18.56 -23.04,44.16 -8.32,25.6 -8.32,56.32 z"
       style="font-style:normal;font-variant:normal;font-weight:300;font-stretch:normal;font-size:640px;font-family:'Fakt Pro';-inkscape-font-specification:'Fakt Pro Light';text-align:end;text-anchor:end;fill:#ffffff;fill-opacity:1;stroke-width:7.5"
       id="path1890" /><path
       d="m 7034.1744,-7004.2773 v -200.32 h -64 v -24.96 h 64 v -94.72 h 30.72 v 94.72 h 88.96 v 24.96 h -88.96 v 199.04 q 0,17.28 3.2,29.44 3.84,11.52 10.24,19.2 7.04,7.04 17.28,10.24 10.88,3.2 25.6,3.2 h 32.64 v 26.24 h -36.48 q -21.12,0 -36.48,-5.12 -15.36,-5.12 -26.24,-15.36 -10.24,-10.88 -15.36,-26.88 -5.12,-16.64 -5.12,-39.68 z"
       style="font-style:normal;font-variant:normal;font-weight:300;font-stretch:normal;font-size:640px;font-family:'Fakt Pro';-inkscape-font-specification:'Fakt Pro Light';text-align:end;text-anchor:end;fill:#ffffff;fill-opacity:1;stroke-width:7.5"
       id="path1892" /><path
       d="m 7230.2444,-6917.2373 v -468.48 h 30.72 v 94.08 q 0,5.12 0,22.4 0,17.28 -0.64,37.76 0,20.48 -0.64,38.4 0,17.28 -0.64,24.32 h 1.92 q 7.04,-16.64 17.92,-29.44 10.88,-12.8 24.96,-21.12 14.72,-8.32 30.72,-12.16 16.64,-4.48 33.92,-4.48 24.32,0 44.16,7.04 19.84,7.04 35.2,22.4 15.36,14.72 23.68,39.04 8.32,23.68 8.32,56.96 v 193.28 h -30.72 v -189.44 q 0,-27.52 -6.4,-46.72 -5.76,-19.84 -17.28,-32 -11.52,-12.16 -27.52,-17.92 -15.36,-5.76 -34.56,-5.76 -21.12,0 -39.68,8.32 -18.56,7.68 -32.64,23.68 -14.08,16 -22.4,40.32 -7.68,23.68 -7.68,54.4 v 165.12 z"
       style="font-style:normal;font-variant:normal;font-weight:300;font-stretch:normal;font-size:640px;font-family:'Fakt Pro';-inkscape-font-specification:'Fakt Pro Light';text-align:end;text-anchor:end;fill:#ffffff;fill-opacity:1;stroke-width:7.5"
       id="path1894" /><path
       d="m 7571.0144,-6995.3173 q 0,-19.2 5.76,-33.92 5.76,-14.72 17.28,-25.6 12.16,-11.52 30.08,-19.2 17.92,-7.68 42.24,-11.52 l 74.24,-12.16 q 12.16,-1.92 19.84,-3.84 7.68,-1.92 12.8,-5.12 5.12,-3.2 7.68,-7.68 2.56,-5.12 2.56,-11.52 -0.64,-21.12 -6.4,-36.48 -5.76,-16 -16.64,-26.24 -10.24,-10.88 -25.6,-16 -14.72,-5.76 -33.92,-5.76 -19.2,0 -35.2,5.12 -15.36,5.12 -26.88,15.36 -11.52,9.6 -18.56,24.32 -7.04,14.72 -8.32,33.28 h -29.44 q 1.28,-23.68 10.24,-42.88 8.96,-19.2 24.32,-32.64 16,-14.08 37.12,-21.12 21.12,-7.04 46.72,-7.04 26.88,0 48,7.68 21.12,7.04 35.2,21.76 14.72,14.08 22.4,35.2 7.68,21.12 7.68,48 v 206.08 h -28.8 v -59.52 h -1.92 q -6.4,15.36 -17.28,27.52 -10.88,12.16 -25.6,21.12 -14.08,8.32 -32,12.8 -17.28,4.48 -37.76,4.48 -23.68,0 -42.24,-6.4 -18.56,-5.76 -31.36,-16.64 -12.8,-11.52 -19.84,-26.88 -6.4,-15.36 -6.4,-34.56 z m 212.48,-55.04 v -41.6 q -2.56,3.2 -6.4,6.4 -3.84,2.56 -8.96,5.12 -5.12,1.92 -10.88,3.2 -5.76,1.28 -12.8,2.56 l -72.32,11.52 q -17.92,2.56 -31.36,8.32 -13.44,5.76 -22.4,14.08 -8.32,7.68 -12.8,18.56 -3.84,10.88 -3.84,24.32 0,13.44 4.48,24.96 5.12,11.52 14.08,19.84 9.6,7.68 23.04,12.16 14.08,4.48 32,4.48 21.76,0 40.96,-6.4 19.2,-7.04 34.56,-20.48 15.36,-14.08 23.68,-35.84 8.96,-21.76 8.96,-51.2 z"
       style="font-style:normal;font-variant:normal;font-weight:300;font-stretch:normal;font-size:640px;font-family:'Fakt Pro';-inkscape-font-specification:'Fakt Pro Light';text-align:end;text-anchor:end;fill:#ffffff;fill-opacity:1;stroke-width:7.5"
       id="path1896" /><path
       d="m 7930.4244,-7004.2773 v -200.32 h -64 v -24.96 h 64 v -94.72 h 30.72 v 94.72 h 88.96 v 24.96 h -88.96 v 199.04 q 0,17.28 3.2,29.44 3.84,11.52 10.24,19.2 7.04,7.04 17.28,10.24 10.88,3.2 25.6,3.2 h 32.64 v 26.24 h -36.48 q -21.12,0 -36.48,-5.12 -15.36,-5.12 -26.24,-15.36 -10.24,-10.88 -15.36,-26.88 -5.12,-16.64 -5.12,-39.68 z"
       style="font-style:normal;font-variant:normal;font-weight:300;font-stretch:normal;font-size:640px;font-family:'Fakt Pro';-inkscape-font-specification:'Fakt Pro Light';text-align:end;text-anchor:end;fill:#ffffff;fill-opacity:1;stroke-width:7.5"
       id="path1898" /><path
       d="m 8133.9644,-6917.2373 v -69.12 h 38.4 v 69.12 z"
       style="font-style:normal;font-variant:normal;font-weight:300;font-stretch:normal;font-size:640px;font-family:'Fakt Pro';-inkscape-font-specification:'Fakt Pro Light';text-align:end;text-anchor:end;fill:#ffffff;fill-opacity:1;stroke-width:7.5"
       id="path1900" /></g></g></g></g></svg>