<?xml version="1.0" encoding="UTF-8" standalone="no"?>
<svg
   viewBox="0 0 512 512"
   version="1.1"
   id="svg4"
   sodipodi:docname="linkedin.svg"
   width="512"
   height="512"
   inkscape:version="1.1 (1:1.1+202105261517+ce6663b3b7)"
   xmlns:inkscape="http://www.inkscape.org/namespaces/inkscape"
   xmlns:sodipodi="http://sodipodi.sourceforge.net/DTD/sodipodi-0.dtd"
   xmlns="http://www.w3.org/2000/svg"
   xmlns:svg="http://www.w3.org/2000/svg">
  <defs
     id="defs8" />
  <sodipodi:namedview
     id="namedview6"
     pagecolor="#ffffff"
     bordercolor="#666666"
     borderopacity="1.0"
     inkscape:pageshadow="2"
     inkscape:pageopacity="0.0"
     inkscape:pagecheckerboard="0"
     showgrid="false"
     fit-margin-top="0"
     fit-margin-left="0"
     fit-margin-right="0"
     fit-margin-bottom="0"
     inkscape:zoom="0.5"
     inkscape:cx="192"
     inkscape:cy="193"
     inkscape:window-width="1872"
     inkscape:window-height="1055"
     inkscape:window-x="48"
     inkscape:window-y="0"
     inkscape:window-maximized="1"
     inkscape:current-layer="svg4" />
  <path
     d="M 471.05532,0 H 43.74466 C 20.405284,0 0,16.804376 0,39.87705 V 468.12191 C 0,491.32795 20.405284,512 43.74466,512 h 427.17729 c 23.47274,0 41.0773,-20.80542 41.0773,-43.87809 V 39.87705 C 512.13262,16.804376 494.39469,0 471.05532,0 Z M 158.70777,426.77781 H 85.35544 V 198.71842 h 73.35233 z M 124.56559,164.04272 h -0.53347 c -23.47275,0 -38.67668,-17.47122 -38.67668,-39.34358 0,-22.27247 15.60404,-39.34358 39.61025,-39.34358 24.00622,0 38.67669,16.93775 39.21016,39.34358 0,21.87236 -15.20394,39.34358 -39.61026,39.34358 z M 426.77718,426.77781 H 353.42486 V 302.07867 c 0,-29.87445 -10.66943,-50.27976 -37.20964,-50.27976 -20.27192,0 -32.27502,13.73691 -37.60974,27.07371 -2.00052,4.80125 -2.53399,11.33629 -2.53399,18.00469 v 129.9005 H 202.71916 V 198.71842 h 73.35233 v 31.7416 c 10.66943,-15.20396 27.34041,-37.07633 66.15046,-37.07633 48.14581,0 84.55523,31.7416 84.55523,100.15942 z"
     id="path2"
     style="stroke-width:1.33368;fill:#ffffff;fill-opacity:1" />
</svg>
