<?xml version="1.0" encoding="UTF-8" standalone="no"?>
<svg version="1.1" id="Layer_1" x="0px" y="0px" viewBox="0 0 335 335" style="enable-background:new 0 0 335 335;" xml:space="preserve" width="512px" height="512px" xmlns="http://www.w3.org/2000/svg" xmlns:svg="http://www.w3.org/2000/svg"><defs id="defs1728"/><g id="g1723"/> <path id="path1155" style="color:#000000;fill:#ffffff;stroke-width:1.52836;-inkscape-stroke:none;fill-opacity:1" d="M 255.625 0 L 255.625 32.509766 C 165.43052 32.66184 84.045274 87.117298 49.519531 170.46875 C 14.945299 253.93725 34.08281 350.14887 97.966797 414.0332 C 161.85078 477.91754 258.0625 497.05419 341.53125 462.48047 C 425 427.90674 479.49805 346.34192 479.49805 255.99609 L 444.50195 255.99609 C 444.50195 332.28625 398.61971 400.9516 328.13672 430.14648 C 257.65371 459.34137 176.66196 443.22865 122.7168 389.2832 C 68.771638 335.33775 52.658213 254.34607 81.853516 183.86328 C 111.00032 113.49757 179.4869 67.661423 255.625 67.509766 L 255.625 99.998047 L 342.22656 50 L 255.625 0 z " transform="scale(0.65429687)"/></svg>