<?xml version="1.0" encoding="UTF-8" standalone="no"?>
<!-- Created with Inkscape (http://www.inkscape.org/) -->

<svg
   xmlns:dc="http://purl.org/dc/elements/1.1/"
   xmlns:cc="http://creativecommons.org/ns#"
   xmlns:rdf="http://www.w3.org/1999/02/22-rdf-syntax-ns#"
   xmlns:svg="http://www.w3.org/2000/svg"
   xmlns="http://www.w3.org/2000/svg"
   xmlns:sodipodi="http://sodipodi.sourceforge.net/DTD/sodipodi-0.dtd"
   xmlns:inkscape="http://www.inkscape.org/namespaces/inkscape"
   version="1.1"
   id="svg2"
   xml:space="preserve"
   width="749.4267"
   height="200.13333"
   viewBox="0 0 749.4267 200.13333"
   sodipodi:docname="td.svg"
   inkscape:version="0.92.5 (0.92.5+68)"><metadata
     id="metadata8"><rdf:RDF><cc:Work
         rdf:about=""><dc:format>image/svg+xml</dc:format><dc:type
           rdf:resource="http://purl.org/dc/dcmitype/StillImage" /><dc:title /></cc:Work></rdf:RDF></metadata><defs
     id="defs6" /><sodipodi:namedview
     pagecolor="#ffffff"
     bordercolor="#666666"
     borderopacity="1"
     objecttolerance="10"
     gridtolerance="10"
     guidetolerance="10"
     inkscape:pageopacity="0"
     inkscape:pageshadow="2"
     inkscape:window-width="1535"
     inkscape:window-height="876"
     id="namedview4"
     showgrid="false"
     inkscape:zoom="0.51794094"
     inkscape:cx="437.49585"
     inkscape:cy="138.02936"
     inkscape:window-x="65"
     inkscape:window-y="24"
     inkscape:window-maximized="1"
     inkscape:current-layer="g10" /><g
     id="g10"
     inkscape:groupmode="layer"
     inkscape:label="ink_ext_XXXXXX"
     transform="matrix(1.3333333,0,0,-1.3333333,0,200.13333)"><g
       id="g12"
       transform="scale(0.1)"><path
         d="M 1322.37,437.75 H 613.246 v 625.47 H 1322.37 V 437.75"
         style="fill:#ffffff;fill-opacity:1;fill-rule:nonzero;stroke:none"
         id="path16"
         inkscape:connector-curvature="0" /><path
         d="M 1091.74,549.473 H 907.164 v 332.558 h 92.723 V 608.32 h 89.163 c 61.52,0 87.37,42.782 87.37,152.469 0,110.559 -29.4,142.668 -91.83,142.668 H 881.324 V 549.473 H 789.477 V 903.457 H 654.84 v 58.848 h 458.28 c 110.56,0 163.15,-57.071 163.15,-200.637 0,-189.012 -78.45,-212.195 -184.53,-212.195 z M 571.656,1104.82 V 396.148 H 1363.96 V 1104.82 H 571.656 v 0"
         style="fill:#41b43c;fill-opacity:1;fill-rule:nonzero;stroke:none"
         id="path18"
         inkscape:connector-curvature="0" /><path
         d="m 1845.93,1035.94 h -85.82 v 68.88 h 264.47 v -68.88 h -85.83 V 756.492 h -92.82 v 279.448"
         style="fill:#ffffff;fill-opacity:1;fill-rule:nonzero;stroke:none"
         id="path20"
         inkscape:connector-curvature="0" /><path
         d="m 2156.37,825.359 h 35.93 c 69.36,0 108.28,35.93 108.28,105.305 0,69.356 -40.42,105.276 -108.28,105.276 h -35.93 z m -92.82,279.461 h 126.75 c 121.26,0 206.09,-37.94 206.09,-172.672 0,-130.246 -87.32,-175.656 -206.09,-175.656 h -126.75 v 348.328"
         style="fill:#ffffff;fill-opacity:1;fill-rule:nonzero;stroke:none"
         id="path22"
         inkscape:connector-curvature="0" /><path
         d="m 2609.05,1104.82 h 92.82 V 756.492 h -92.82 v 348.328"
         style="fill:#ffffff;fill-opacity:1;fill-rule:nonzero;stroke:none"
         id="path24"
         inkscape:connector-curvature="0" /><path
         d="m 2766.76,1016.48 h 81.84 v -47.906 h 1 c 17.97,37.426 53.89,53.906 94.8,53.906 70.86,0 99.32,-49.902 99.32,-103.808 v -162.18 h -89.82 v 125.774 c 0,48.906 -16.98,65.351 -41.43,65.351 -36.91,0 -55.88,-25.449 -55.88,-81.328 V 756.492 h -89.83 v 259.988"
         style="fill:#ffffff;fill-opacity:1;fill-rule:nonzero;stroke:none"
         id="path26"
         inkscape:connector-curvature="0" /><path
         d="m 3094.66,828.367 c 20.96,-8.984 51.91,-17.969 84.33,-17.969 18.46,0 36.43,2.989 36.43,20.957 0,43.918 -127.73,12.961 -127.73,106.79 0,59.882 58.88,84.335 110.78,84.335 30.93,0 62.36,-3.52 91.31,-14.98 l -6.98,-62.383 c -18.98,11.504 -47.42,17.461 -69.86,17.461 -19.47,0 -41.43,-3.476 -41.43,-17.969 0,-40.41 133.73,-8.457 133.73,-107.277 0,-69.355 -62.38,-86.836 -121.25,-86.836 -40.43,0 -67.87,4.004 -94.31,12.5 l 4.98,65.371"
         style="fill:#ffffff;fill-opacity:1;fill-rule:nonzero;stroke:none"
         id="path28"
         inkscape:connector-curvature="0" /><path
         d="m 3626.16,756.492 h -81.85 v 47.91 h -1 c -17.95,-37.422 -53.89,-53.906 -94.8,-53.906 -70.86,0 -99.3,49.922 -99.3,103.82 v 162.164 h 89.82 V 890.742 c 0,-48.906 16.96,-65.383 41.41,-65.383 36.93,0 55.88,25.461 55.88,81.34 v 109.781 h 89.84 V 756.492"
         style="fill:#ffffff;fill-opacity:1;fill-rule:nonzero;stroke:none"
         id="path30"
         inkscape:connector-curvature="0" /><path
         d="m 3867.72,944.609 c -9.98,3.008 -19.96,3.008 -30.43,3.008 -41.93,0 -65.39,-30.429 -65.39,-81.328 V 756.492 h -89.82 v 259.988 h 81.86 v -47.906 h 0.97 c 15.49,32.926 37.93,53.906 76.86,53.906 10.49,0 21.46,-1.5 30.45,-3.01 l -4.5,-74.861"
         style="fill:#ffffff;fill-opacity:1;fill-rule:nonzero;stroke:none"
         id="path32"
         inkscape:connector-curvature="0" /><path
         d="m 4011.98,810.398 c 33.93,0 55.37,30.95 55.37,61.379 -11.48,0.508 -24.45,1.485 -37.91,1.485 -30.45,0 -54.41,-9.473 -54.41,-34.426 0,-17.969 15.98,-28.438 36.95,-28.438 z m 61.86,-53.906 c -0.49,13.985 -1.99,27.442 -1.99,40.918 h -1 c -20.45,-32.422 -45.41,-46.914 -82.34,-46.914 -51.39,0 -97.31,25.469 -97.31,81.836 0,79.348 86.33,88.84 134.24,88.84 14.47,0 30.43,-1.504 41.91,-3.496 -0.5,35.429 -26.95,44.902 -59.39,44.902 -28.93,0 -57.87,-5.469 -82.81,-19.453 l -1.51,60.875 c 31.94,12.99 65.37,18.48 103.79,18.48 66.39,0 123.75,-28.457 123.75,-107.792 v -96.809 c 0,-20.469 1.02,-40.918 4.98,-61.387 h -82.32"
         style="fill:#ffffff;fill-opacity:1;fill-rule:nonzero;stroke:none"
         id="path34"
         inkscape:connector-curvature="0" /><path
         d="m 4208.62,1016.48 h 81.84 v -47.906 h 1 c 17.96,37.426 53.88,53.906 94.8,53.906 70.86,0 99.3,-49.902 99.3,-103.808 v -162.18 h -89.83 v 125.774 c 0,48.906 -16.95,65.351 -41.4,65.351 -36.92,0 -55.88,-25.449 -55.88,-81.328 V 756.492 h -89.83 v 259.988"
         style="fill:#ffffff;fill-opacity:1;fill-rule:nonzero;stroke:none"
         id="path36"
         inkscape:connector-curvature="0" /><path
         d="m 4745.11,942.129 c -16.47,9.98 -32.93,14.492 -54.4,14.492 -38.92,0 -68.86,-26.973 -68.86,-71.875 0,-41.426 34.92,-68.371 73.84,-68.371 20.47,0 40.94,4.492 55.9,12.48 L 4753.58,762 c -22.46,-7.5 -49.39,-11.504 -73.36,-11.504 -85.82,0 -151.19,49.922 -151.19,135.734 0,86.348 65.37,136.25 151.19,136.25 26.96,0 50.9,-4.49 71.37,-14.47 l -6.48,-65.881"
         style="fill:#ffffff;fill-opacity:1;fill-rule:nonzero;stroke:none"
         id="path38"
         inkscape:connector-curvature="0" /><path
         d="m 4968.19,911.191 c 0,29.942 -13.96,54.395 -49.9,54.395 -32.42,0 -47.91,-24.453 -49.88,-54.395 z m -98.79,-50.898 c 5,-35.93 32.43,-49.895 76.35,-49.895 24.44,0 52.38,5.489 79.34,19.961 V 766.98 c -28.95,-11.484 -61.88,-16.484 -95.31,-16.484 -85.82,0 -151.22,50.41 -151.22,136.242 0,85.84 58.4,135.742 139.24,135.742 96.31,0 131.23,-68.359 131.23,-145.722 V 860.293 H 4869.4"
         style="fill:#ffffff;fill-opacity:1;fill-rule:nonzero;stroke:none"
         id="path40"
         inkscape:connector-curvature="0" /></g></g></svg>